<?xml version="1.0" encoding="UTF-8"?>
<svg id="Layer_2" data-name="Layer 2" xmlns="http://www.w3.org/2000/svg" viewBox="0 0 1476.64 758.96">
  <defs>
    <style>
      .cls-1 {
        fill: #fff;
        stroke-width: 0px;
      }
    </style>
  </defs>
  <g id="Layer_1-2" data-name="Layer 1">
    <path class="cls-1" d="M1473.69,352.38c-13.19-94.77-94.54-167.72-192.94-167.72-41.08,0-79.17,12.72-110.59,34.43-32.67-61.78-97.58-103.89-172.33-103.89-30.72,0-59.77,7.12-85.61,19.78C886.97,56.66,813.49,0,726.77,0s-164.57,60.09-187.58,142.04c-28.95-17.05-62.69-26.85-98.72-26.85-69.77,0-130.96,36.68-165.37,91.8-24.48-11.08-51.66-17.26-80.28-17.26-96.63,0-176.82,70.36-192.16,162.63h-1.57v11.52c-.72,6.79-1.09,13.69-1.09,20.67s.38,13.88,1.09,20.67v353.73h1475.55v-406.59h-2.95Z"/>
  </g>
</svg>