<?xml version="1.0" encoding="UTF-8"?>
<svg id="Layer_2" data-name="Layer 2" xmlns="http://www.w3.org/2000/svg" viewBox="0 0 1156.32 323.14">
  <defs>
    <style>
      .cls-1 {
        fill: #fff;
        stroke-width: 0px;
      }
    </style>
  </defs>
  <g id="Layer_1-2" data-name="Layer 1">
    <g>
      <g>
        <path class="cls-1" d="M233.43,15.97h-66.61c-9.84-4.97-19.14-8.86-27.85-11.55-9.51-2.94-20.39-4.42-32.62-4.42-14.95,0-28.03,2.89-39.24,8.66-11.21,5.78-19.88,13.88-25.99,24.3-6.12,10.42-9.18,22.55-9.18,36.36v19.71H0v40.44h31.94v79.17H0v40.44h126.4v-40.44h-44.17v-79.17h48.25v-40.44h-48.25v-20.73c0-3.62,1.13-7.36,3.4-11.21s5.66-7.14,10.2-9.86c4.53-2.72,10.3-4.07,17.33-4.07s13.31,1.02,18.86,3.06c5.2,1.91,11.29,5.17,18.18,9.66v.53h.83c.18.12.35.22.53.34l.15-.34h30.09v152.23h-31.6v40.44h115.87v-40.44h-32.62V15.97Z"/>
        <polygon class="cls-1" points="391.78 208.63 359.5 208.63 359.5 89.03 345.23 89.03 307.85 89.03 275.91 89.03 275.91 129.46 307.85 129.46 307.85 208.63 275.91 208.63 275.91 249.07 391.78 249.07 391.78 208.63"/>
        <path class="cls-1" d="M307,56.74c6.46,4.99,14.21,7.48,23.27,7.48,9.97,0,18.06-2.49,24.3-7.48,6.23-4.98,9.35-11.21,9.35-18.69,0-7.93-3.12-14.44-9.35-19.54-6.23-5.1-14.33-7.64-24.3-7.64-9.06,0-16.82,2.55-23.27,7.64-6.46,5.1-9.69,11.61-9.69,19.54,0,7.48,3.23,13.71,9.69,18.69Z"/>
        <path class="cls-1" d="M598.21,125.72c-6.91-12.68-15.97-22.65-27.19-29.9-11.21-7.24-23.39-10.87-36.52-10.87-11.56,0-23.17,3.52-34.83,10.53-10.05,6.05-19.24,14.41-27.69,24.82v-31.28h-82.23v40.44h31.6v153.24h-31.6v40.44h113.16v-40.44h-30.92v-48.43c4.84,4.2,10.17,8.03,16.14,11.4,9.63,5.43,21.24,8.15,34.83,8.15,12.46,0,23.9-2.15,34.32-6.46,10.42-4.3,19.48-10.25,27.19-17.84,7.7-7.59,13.64-16.53,17.84-26.84,4.19-10.31,6.29-21.46,6.29-33.47,0-16.31-3.46-30.8-10.36-43.49ZM551.49,185.53c-2.04,5.22-4.99,9.69-8.84,13.43-3.86,3.74-8.55,6.62-14.1,8.66-5.55,2.04-11.95,3.06-19.2,3.06-7.94,0-15.8-1.98-23.62-5.95-4.8-2.43-9.34-5.45-13.76-8.74v-39.23c5.94-7.57,12.16-13.82,18.69-18.63,9.05-6.68,17.55-10.02,25.48-10.02s14.78,1.76,20.56,5.27c5.77,3.51,10.19,8.33,13.25,14.44,3.06,6.12,4.59,13.03,4.59,20.73,0,6.12-1.02,11.78-3.05,16.99Z"/>
      </g>
      <g>
        <path class="cls-1" d="M800.05,95.82c-11.21-7.24-23.39-10.87-36.52-10.87-11.56,0-23.17,3.52-34.83,10.53-10.05,6.05-19.24,14.41-27.69,24.82v-31.28h-82.23v40.44h31.6v153.24h-31.6v40.44h113.16v-40.44h-30.92v-48.43c4.84,4.2,10.17,8.03,16.14,11.4,9.63,5.43,21.24,8.15,34.83,8.15,12.46,0,23.9-2.15,34.32-6.46,10.42-4.3,19.48-10.25,27.19-17.84,7.7-7.59,13.64-16.53,17.84-26.84,4.19-10.31,6.29-21.46,6.29-33.47,0-16.31-3.46-30.8-10.36-43.49-6.91-12.68-15.97-22.65-27.19-29.9ZM780.51,185.53c-2.04,5.22-4.99,9.69-8.84,13.43-3.86,3.74-8.55,6.62-14.1,8.66-5.55,2.04-11.95,3.06-19.2,3.06-7.94,0-15.8-1.98-23.62-5.95-4.8-2.43-9.34-5.45-13.76-8.74v-39.23c5.94-7.57,12.16-13.82,18.69-18.63,9.05-6.68,17.55-10.02,25.48-10.02s14.78,1.76,20.56,5.27c5.77,3.51,10.19,8.33,13.25,14.44,3.06,6.12,4.59,13.03,4.59,20.73,0,6.12-1.02,11.78-3.05,16.99Z"/>
        <path class="cls-1" d="M886.35,56.74c6.46,4.99,14.21,7.48,23.27,7.48,9.97,0,18.06-2.49,24.3-7.48,6.23-4.98,9.35-11.21,9.35-18.69,0-7.93-3.12-14.44-9.35-19.54-6.23-5.1-14.33-7.64-24.3-7.64-9.06,0-16.82,2.55-23.27,7.64-6.46,5.1-9.69,11.61-9.69,19.54,0,7.48,3.23,13.71,9.69,18.69Z"/>
        <polygon class="cls-1" points="938.85 89.03 924.58 89.03 887.2 89.03 855.26 89.03 855.26 129.46 887.2 129.46 887.2 208.63 855.26 208.63 855.26 249.07 971.13 249.07 971.13 208.63 938.85 208.63 938.85 89.03"/>
        <path class="cls-1" d="M1135.25,190.29c-7.48,5.66-16.2,10.48-26.17,14.44-9.97,3.97-21.07,5.95-33.3,5.95-8.61,0-16.48-1.53-23.62-4.59-7.13-3.06-12.8-7.64-16.99-13.76-3.58-5.22-5.53-11.49-6.06-18.68,6.19,2.79,12.39,5.36,18.63,7.47,10.08,3.4,22.03,5.1,35.85,5.1,11.55,0,22.43-1.81,32.62-5.44,10.19-3.62,18.46-9.05,24.81-16.31,6.34-7.24,9.51-16.42,9.51-27.53s-3.23-19.88-9.69-27.69c-6.46-7.82-15.35-13.81-26.68-18.01-11.33-4.19-24.46-6.29-39.42-6.29-12.46,0-24.35,2.04-35.68,6.12-11.33,4.08-21.47,9.91-30.41,17.5-8.95,7.59-16.03,16.71-21.24,27.35-5.22,10.65-7.82,22.65-7.82,36.02s2.6,25.14,7.82,35.34c5.21,10.2,12.34,18.75,21.4,25.66,9.06,6.91,19.2,12.12,30.41,15.63s22.71,5.27,34.49,5.27,22.31-1.25,32.28-3.74c9.97-2.49,19.14-6,27.53-10.53,8.38-4.53,15.97-9.74,22.76-15.63l-21.07-33.64ZM1044.53,137.62c4.76-4.08,10.08-7.25,15.97-9.51,5.89-2.26,12.01-3.4,18.35-3.4s10.99,1.14,14.61,3.4c3.62,2.26,5.44,5.21,5.44,8.83,0,2.95-1.08,5.55-3.23,7.82-2.15,2.27-5.32,4.03-9.51,5.27-4.2,1.25-9.46,1.99-15.8,2.21-6.11,0-13.31-.68-21.58-2.04-3.7-.61-7.88-1.74-12.41-3.25,2.34-3.38,4.95-6.56,8.17-9.32Z"/>
      </g>
    </g>
  </g>
</svg>