<?xml version="1.0" encoding="UTF-8"?>
<svg id="Layer_2" data-name="Layer 2" xmlns="http://www.w3.org/2000/svg" viewBox="0 0 1480.13 599.67">
  <defs>
    <style>
      .cls-1 {
        fill: #f4d2d8;
        stroke-width: 0px;
      }
    </style>
  </defs>
  <g id="Layer_1-2" data-name="Layer 1">
    <g>
      <g>
        <path class="cls-1" d="M240.04,355.45c-9.69-45.14-53.78-75.48-99.37-68.26-18.52,2.93-34.61,10.87-48.17,23.86-1.05,1.01-1.79,2.12-2.21,3.52-3.52,11.6-7.07,23.19-10.6,34.78q-1.2,3.94-5.25,2.9c-3.49-.89-4.83-.12-5.75,3.3-2.19,8.17-4.38,16.33-6.58,24.5-10.01,37.15-20.02,74.29-30.02,111.44-1,3.7,1.09,5.73,4.83,4.75,4.57-1.2,9.13-2.39,13.69-3.62,40.06-10.81,80.11-21.64,120.17-32.45,6.18-1.67,6.47-2.02,4.79-8.12-.48-1.76-.11-2.38,1.63-2.9,12.15-3.62,24.27-7.37,36.4-11.05,1.31-.4,2.46-.94,3.43-1.96,16.51-17.29,24.77-37.93,25.1-58.69-.02-9.47-.75-15.76-2.09-22ZM85.77,352.76c3.31-10.47,6.48-20.99,9.61-31.52.51-1.73,1.05-1.98,2.68-1.13,26.46,13.65,42.78,34.97,48.71,64.19.9,4.44,1.26,8.93,1.51,13.69-1.19-.63-1.65-1.54-2.28-2.26-16.08-18.31-35.58-31.58-58.61-39.58-2.03-.7-2.25-1.42-1.63-3.38ZM212.12,351.43c10.56,8.39,11.67,24.08,2.51,34.06-1.7,1.85-1.99,3.57-1.53,5.94,1.45,7.59-.4,14.41-5.47,20.29-.46.54-1.1,1.95-1.85,1.07-.85-1-2.79-1.8-1.69-3.82,2.39-4.37,3.43-9.07,3.22-14.05-.12-2.77-.65-5.46-1.66-8.04-.37-.94-.36-1.54.49-2.34,10.5-9.85,8.06-26.64-4.79-33.08-1.05-.53-1.49-1.17-1.81-2.32-2.9-10.53-9.64-17.33-20.16-20.27-1.3-.36-2-.91-2.59-2.09-6.28-12.53-23.34-14.96-32.84-4.67-.84.91-1.46.97-2.51.59-7.51-2.74-14.82-2.14-21.91,1.47-.99.5-3.86-.66-4.17-1.69-.18-.62.34-.88.68-1.2,5.01-4.67,11.02-7.18,17.76-6.33,4.5.57,7.74-.15,11.48-3,10.03-7.65,24.39-5.3,32.08,4.78,1.75,2.3,3.51,3.14,6.38,3,12.41-.61,22.18,7.1,24.66,19.23.32,1.58.32,3.22.48,4.95-1.1,3.38.58,5.41,3.25,7.53ZM184.86,369.47c-1.17-.21-1.6-.52-1.79-1.76-1.77-11.46-10.72-20.54-22.13-22.38-1.52-.24-1.86-.77-2.12-2.17-1.15-6.08-4-11.29-8.75-15.32-1.24-1.06-.91-1.52.13-2.31,2.56-1.96,5.38-3.04,8.18-2.96,6.24.04,11.08,3.43,12.96,9,.75,2.21,2,3.22,4.37,3.57,9.53,1.4,16.19,8.04,17.51,17.48.35,2.49,1.48,3.66,3.74,4.44,8.72,3.04,11.66,13.81,5.91,21.08-.94,1.19-1.39,1.24-2.44.03-4.12-4.76-9.38-7.62-15.56-8.72ZM198.64,404.25c-4.42-4.62-9-8.8-14.05-12.42-1.6-1.15-3.23-2.28-4.89-3.33-.86-.55-1.17-.95-.5-1.96,1.79-2.73,3.05-5.72,3.6-8.95.21-1.22.79-1.3,1.9-1.09,12.04,2.27,19.19,16.17,13.94,27.76ZM145.58,354.85c6.76-3.97,13.72-4.24,20.56-.51,6.9,3.76,10.2,9.89,10.4,17.7.05,3.94-1.07,7.52-3.1,10.86-.6,1-1.06,1.37-2.29.72-5.63-2.97-11.57-5.19-17.69-6.91-1-.28-1.52-.68-1.81-1.73-1.71-6.2-3.95-12.2-6.97-17.89-.7-1.32,0-1.71.89-2.23ZM141.6,349.29c-.7.46-1.11.37-1.53-.31-4.38-7.07-9.81-13.26-15.7-19.09-.04-.04-.03-.14-.04-.21,10.3-4.98,24.92.83,27.74,14.51.19.92-.25,1.12-.93,1.25-3.43.66-6.63,1.93-9.55,3.85ZM167.12,454.07c-10.2,2.78-20.42,5.49-30.62,8.24-31.17,8.41-62.33,16.83-93.5,25.22-.84.23-1.91,1.03-2.56.38-.65-.65.16-1.71.39-2.55,11.09-41.24,22.22-82.47,33.27-123.72.5-1.88,1.13-2.24,2.99-1.67,46.52,14.33,76.93,44.73,91.23,91.26.17.54.3,1.08.43,1.55.09,1.33-1.03,1.12-1.64,1.29ZM207.13,432.96c-10.8,3.21-21.58,6.5-32.34,9.86-1.48.46-1.88.05-2.33-1.27-4-11.75-9.54-22.73-16.56-32.97-.6-.87-.84-1.71-.81-2.75.2-6.78.09-13.55-1.13-20.26-.22-1.2-.09-1.34.65-1.33.54.16,1.08.31,1.61.5,23.38,8.27,40.7,23.45,52,45.53.8,1.57.7,2.17-1.09,2.7ZM216.58,426.36c-1.64,2-1.62,1.99-2.86-.35-1.16-2.18-3.21-4.28-3.34-6.5-.12-2.14,2.85-3.47,4.19-5.41,4.63-6.74,6.72-14.08,5.54-22.23-.19-1.28.1-2.25.91-3.29,10.31-13.16,8.51-31.2-4.19-42.23-.82-.71-1.17-1.4-1.16-2.51.02-17.76-13.39-31.11-31.28-31.16-1.04,0-1.67-.35-2.32-1.1-11.21-12.83-29.05-14.6-42.39-4.2-.97.76-1.88,1.03-3.09.87-10.21-1.36-18.95,1.72-26.19,8.99-1.02,1.03-1.64,1.05-2.78.32-1.84-1.18-3.75-2.28-5.74-3.16-1.65-.73-1.66-1.19-.3-2.32,8.2-6.79,17.34-11.81,27.45-15.14,45.86-15.07,95.95,14.55,104.71,61.91,1.1,5.93,1.6,11.89,1.58,16.35-.77,20.15-6.92,36.71-18.72,51.14Z"/>
        <path class="cls-1" d="M120.1,404.82c0-1.19-.1-2.4.02-3.58.21-1.98,1.73-3.37,3.51-3.24,1.94.14,3.18,1.27,3.3,3.2.15,2.38.16,4.78,0,7.16-.13,1.99-1.72,3.33-3.48,3.27-1.76-.06-3.18-1.45-3.36-3.45-.1-1.12-.02-2.25-.02-3.37,0,0,0,0,.01,0Z"/>
        <path class="cls-1" d="M84.2,386.67c-1.12,0-2.25.06-3.37-.02-2.04-.15-3.37-1.47-3.45-3.3-.08-1.85,1.13-3.36,3.18-3.49,2.45-.16,4.92-.15,7.36.03,1.88.14,3.13,1.71,3.08,3.4-.05,1.67-1.41,3.09-3.22,3.36-.14.02-.28.03-.42.03-1.05,0-2.11,0-3.16,0Z"/>
        <path class="cls-1" d="M141.7,443.92c0-1.13-.1-2.27.02-3.39.21-1.83,1.72-3.18,3.4-3.19,1.71-.01,3.24,1.27,3.35,3.18.15,2.46.14,4.95,0,7.41-.11,1.88-1.37,2.9-3.22,3.03-1.76.12-3.27-1.13-3.5-3.01-.16-1.32-.03-2.68-.03-4.02,0,0,0,0-.01,0Z"/>
        <path class="cls-1" d="M96.51,407.8c.08,2.24-6.19,8.36-8.45,8.26-1.32-.06-2.24-.69-2.85-1.84-.66-1.26-.57-2.53.36-3.54,1.76-1.91,3.6-3.75,5.52-5.5,1.01-.92,2.32-.86,3.56-.26,1.19.58,1.66,1.65,1.86,2.88Z"/>
        <path class="cls-1" d="M123.8,435.25c.02,2.11-5.92,8.24-8.06,8.26-1.28.01-2.33-.54-2.99-1.68-.64-1.12-.8-2.39-.02-3.4,1.77-2.29,3.76-4.46,6.14-6.09,2.11-1.46,4.91.32,4.93,2.91Z"/>
        <path class="cls-1" d="M92.02,432.72c0-1.13-.08-2.27.02-3.39.17-1.99,1.61-3.24,3.53-3.19,1.83.05,3.15,1.27,3.23,3.22.1,2.33.1,4.66,0,6.99-.08,2.01-1.54,3.37-3.37,3.36-1.79-.01-3.27-1.43-3.4-3.4-.08-1.2-.02-2.4-.02-3.6,0,0,0,0,0,0Z"/>
        <path class="cls-1" d="M70.75,433.67c0,1.13.05,2.26,0,3.39-.1,1.96-1.55,3.34-3.4,3.33-1.77-.02-3.26-1.35-3.32-3.18-.09-2.4-.08-4.81,0-7.21.06-1.83,1.55-3.2,3.28-3.25,1.8-.05,3.34,1.4,3.44,3.31.06,1.2.01,2.4.01,3.6Z"/>
        <path class="cls-1" d="M70.03,461.77c0,1.2.1,2.41-.02,3.6-.2,1.9-1.66,3.25-3.37,3.14-1.84-.12-3.18-1.17-3.33-2.98-.21-2.53-.19-5.09-.02-7.62.13-1.89,1.7-3.09,3.5-2.98,1.88.12,3.03,1.15,3.21,3.03.12,1.26.02,2.54.02,3.81Z"/>
        <path class="cls-1" d="M94.93,464.36c-1.27,0-2.55.07-3.81-.02-1.82-.12-3.15-1.59-3.16-3.35,0-1.76,1.33-3.29,3.14-3.36,2.47-.09,4.95-.12,7.41.02,1.9.1,2.87,1.43,3.06,3.22.18,1.68-1.29,3.31-3.04,3.46-1.19.1-2.4.02-3.6.02,0,0,0,0,0,0Z"/>
      </g>
      <g>
        <path class="cls-1" d="M590.77,357.06c-45.88,5.1-80.5,45.93-77.9,92.01,1.06,18.72,7.33,35.52,18.9,50.33.9,1.15,1.93,1.99,3.28,2.55,11.19,4.66,22.36,9.36,33.54,14.04q3.8,1.59,2.36,5.51c-1.24,3.38-.61,4.79,2.71,6.05,7.9,3,15.81,6,23.71,9.01,35.95,13.69,71.91,27.38,107.86,41.06,3.58,1.36,5.81-.5,5.21-4.33-.73-4.66-1.46-9.33-2.23-13.98-6.73-40.94-13.48-81.88-20.21-122.82-1.04-6.32-1.36-6.64-7.6-5.58-1.8.3-2.38-.13-2.72-1.92-2.38-12.45-4.89-24.88-7.33-37.33-.26-1.35-.69-2.54-1.6-3.61-15.55-18.16-35.25-28.45-55.87-30.87-9.43-.93-15.76-.83-22.1-.13ZM572.6,510.28c-10.09-4.35-20.23-8.56-30.4-12.73-1.67-.69-1.86-1.25-.86-2.78,16.24-24.95,39.09-39.05,68.76-42.02,4.51-.45,9.01-.36,13.77-.13-.74,1.12-1.7,1.48-2.48,2.04-19.84,14.16-35,32.23-45.27,54.34-.9,1.94-1.63,2.1-3.53,1.28ZM583.97,384.43c9.41-9.66,25.13-9.19,34.14.92,1.67,1.88,3.35,2.34,5.75,2.12,7.7-.68,14.3,1.85,19.63,7.48.49.51,1.83,1.29.88,1.95-1.08.75-2.07,2.59-3.97,1.29-4.11-2.82-8.68-4.33-13.66-4.62-2.77-.16-5.5.1-8.17.84-.97.27-1.57.21-2.28-.72-8.75-11.44-25.7-10.7-33.39,1.45-.63.99-1.32,1.37-2.49,1.57-10.77,1.82-18.22,7.85-22.19,18.03-.49,1.26-1.11,1.9-2.34,2.36-13.1,4.98-17.23,21.71-7.94,32.21.82.93.82,1.55.33,2.56-3.48,7.2-3.62,14.53-.74,21.95.4,1.03-1.05,3.78-2.1,3.98-.63.12-.84-.43-1.12-.8-4.14-5.45-6.04-11.68-4.51-18.31,1.02-4.42.63-7.72-1.83-11.72-6.6-10.75-2.82-24.8,7.98-31.44,2.46-1.51,3.47-3.17,3.62-6.04.64-12.41,9.29-21.36,21.61-22.6,1.6-.16,3.24,0,4.97.02,3.25,1.43,5.44-.04,7.82-2.48ZM599.18,413.36c-.33,1.15-.68,1.54-1.93,1.61-11.58.61-21.51,8.6-24.49,19.77-.4,1.48-.95,1.77-2.37,1.89-6.17.53-11.63,2.85-16.12,7.16-1.18,1.13-1.6.75-2.29-.36-1.69-2.74-2.48-5.66-2.12-8.44.66-6.21,4.52-10.67,10.25-11.99,2.27-.52,3.4-1.67,3.99-3.99,2.36-9.34,9.62-15.3,19.15-15.67,2.51-.1,3.79-1.11,4.8-3.28,3.9-8.37,14.91-10.22,21.57-3.76,1.09,1.06,1.09,1.51-.22,2.43-5.15,3.62-8.53,8.57-10.24,14.61ZM635.16,403.15c-5.04,3.94-9.66,8.07-13.77,12.73-1.31,1.48-2.59,2.98-3.8,4.53-.63.81-1.06,1.06-2,.3-2.54-2.05-5.38-3.61-8.55-4.48-1.2-.33-1.22-.92-.9-2,3.47-11.75,18.02-17.47,29.02-11.08ZM580.69,450.98c-3.27-7.13-2.84-14.08,1.55-20.51,4.43-6.48,10.86-9.15,18.65-8.57,3.93.35,7.37,1.82,10.49,4.17.93.7,1.26,1.2.49,2.35-3.53,5.3-6.33,10.99-8.65,16.91-.38.97-.83,1.44-1.9,1.62-6.34,1.08-12.54,2.71-18.5,5.14-1.39.56-1.7-.17-2.13-1.11ZM574.75,454.38c.39.75.26,1.14-.46,1.49-7.47,3.64-14.18,8.43-20.57,13.7-.04.04-.14.01-.21.02-3.92-10.75,3.33-24.71,17.22-26.15.93-.1,1.09.36,1.15,1.05.31,3.48,1.25,6.79,2.87,9.89ZM681.57,439.51c1.74,10.43,3.41,20.86,5.13,31.29,5.23,31.85,10.48,63.7,15.69,95.56.14.86.84,2,.13,2.58-.71.58-1.68-.33-2.5-.64-39.92-15.18-79.82-30.39-119.75-45.54-1.82-.69-2.12-1.35-1.36-3.14,18.93-44.85,52.24-72.05,99.96-81.6.55-.11,1.11-.19,1.58-.27,1.33.05,1.01,1.14,1.12,1.76ZM664.59,397.58c2.11,11.07,4.3,22.12,6.56,33.16.31,1.52-.13,1.88-1.5,2.19-12.09,2.8-23.58,7.21-34.47,13.16-.92.5-1.79.66-2.82.53-6.73-.89-13.48-1.45-20.27-.91-1.21.1-1.34-.04-1.26-.78.22-.52.42-1.05.66-1.56,10.58-22.43,27.42-38.14,50.53-47.16,1.65-.64,2.23-.48,2.58,1.36ZM658.96,387.52c1.83,1.83,1.81,1.81-.63,2.81-2.29.93-4.58,2.77-6.8,2.67-2.14-.1-3.16-3.19-4.96-4.71-6.24-5.28-13.33-8.1-21.56-7.74-1.29.06-2.23-.33-3.18-1.24-12.05-11.58-30.19-11.6-42.44-.07-.79.74-1.51,1.02-2.61.91-17.66-1.8-32.3,10.2-34.14,27.99-.11,1.03-.52,1.62-1.33,2.2-13.89,9.87-17.44,27.44-8.43,41.75.66,1.04.84,1.97.56,3.16-2.38,10.03-.2,19.03,6.31,26.96.92,1.12.88,1.74.03,2.8-1.36,1.71-2.64,3.5-3.72,5.4-.89,1.57-1.35,1.53-2.34.07-5.93-8.84-10.01-18.44-12.3-28.83-10.39-47.15,24.12-94,72.12-97.96,6.01-.5,11.99-.4,16.43.07,19.97,2.8,35.83,10.57,49,23.77Z"/>
        <path class="cls-1" d="M627.84,481.35c-1.19-.12-2.4-.14-3.56-.38-1.94-.41-3.18-2.06-2.87-3.82.34-1.92,1.59-3.04,3.52-2.96,2.38.09,4.77.32,7.12.72,1.97.33,3.14,2.05,2.91,3.79-.23,1.75-1.76,3.02-3.77,2.99-1.12-.01-2.24-.21-3.36-.32,0,0,0,0,0-.01Z"/>
        <path class="cls-1" d="M606.17,515.24c-.12,1.12-.16,2.25-.36,3.35-.35,2.01-1.8,3.21-3.63,3.1-1.85-.11-3.23-1.47-3.16-3.52.09-2.45.35-4.91.77-7.32.32-1.86,2.01-2.94,3.69-2.73,1.66.22,2.93,1.71,3.02,3.54,0,.14,0,.28-.02.42-.1,1.05-.21,2.1-.32,3.15Z"/>
        <path class="cls-1" d="M668.91,463.78c-1.12-.11-2.27-.13-3.37-.36-1.8-.39-2.99-2.03-2.84-3.7.16-1.7,1.59-3.1,3.5-3.02,2.46.1,4.93.36,7.37.75,1.86.3,2.75,1.65,2.69,3.51-.05,1.76-1.46,3.14-3.35,3.18-1.33.02-2.67-.24-4-.37,0,0,0,0,0,.01Z"/>
        <path class="cls-1" d="M628.43,505.12c2.24.14,7.69,7,7.37,9.23-.19,1.3-.91,2.16-2.12,2.65-1.32.53-2.58.31-3.48-.71-1.72-1.94-3.37-3.96-4.91-6.04-.81-1.1-.62-2.4.1-3.56.7-1.13,1.81-1.49,3.05-1.56Z"/>
        <path class="cls-1" d="M658.49,480.73c2.1.19,7.6,6.72,7.41,8.85-.12,1.28-.77,2.27-1.97,2.8-1.18.53-2.46.56-3.39-.32-2.1-1.99-4.05-4.19-5.45-6.72-1.24-2.25.81-4.85,3.39-4.61Z"/>
        <path class="cls-1" d="M652.78,512.09c-1.12-.11-2.26-.15-3.37-.36-1.96-.37-3.06-1.93-2.82-3.83.23-1.81,1.58-3,3.53-2.89,2.33.14,4.65.37,6.96.7,1.99.28,3.2,1.87,3.01,3.69-.19,1.78-1.76,3.11-3.72,3.05-1.2-.04-2.39-.23-3.59-.35,0,0,0,0,0,0Z"/>
        <path class="cls-1" d="M651.59,533.35c1.12.11,2.26.18,3.37.35,1.94.3,3.17,1.87,2.97,3.72-.19,1.76-1.67,3.11-3.5,2.99-2.4-.15-4.79-.4-7.17-.72-1.81-.24-3.03-1.86-2.9-3.59.13-1.79,1.72-3.18,3.64-3.09,1.2.06,2.39.23,3.59.35Z"/>
        <path class="cls-1" d="M679.47,536.89c1.19.12,2.41.14,3.58.38,1.87.39,3.07,1.97,2.79,3.67-.3,1.82-1.48,3.04-3.3,3.01-2.53-.04-5.08-.32-7.58-.75-1.86-.32-2.9-2-2.61-3.78.3-1.86,1.45-2.9,3.34-2.89,1.26,0,2.53.23,3.79.36Z"/>
        <path class="cls-1" d="M684.55,512.38c-.13,1.27-.19,2.54-.4,3.79-.3,1.8-1.9,2.98-3.65,2.8-1.75-.17-3.14-1.65-3.02-3.46.16-2.47.38-4.94.76-7.38.29-1.88,1.71-2.71,3.51-2.72,1.69,0,3.17,1.61,3.14,3.38-.02,1.2-.22,2.39-.34,3.58,0,0,0,0,0,0Z"/>
      </g>
      <g>
        <path class="cls-1" d="M403.27,231.48c18.28,42.39,67.43,63.58,110.75,47.63,17.6-6.48,31.83-17.39,42.61-32.77.84-1.2,1.34-2.43,1.48-3.89,1.19-12.06,2.42-24.12,3.64-36.18q.41-4.1,4.58-3.87c3.59.2,4.76-.82,5-4.36.56-8.44,1.12-16.87,1.69-25.31,2.59-38.38,5.19-76.77,7.77-115.15.26-3.82-2.18-5.41-5.66-3.72-4.25,2.06-8.49,4.12-12.72,6.22-37.19,18.4-74.37,36.8-111.56,55.2-5.74,2.84-5.95,3.24-3.12,8.9.82,1.63.57,2.32-1.04,3.16-11.21,5.92-22.37,11.95-33.56,17.91-1.21.65-2.23,1.4-2.98,2.59-12.83,20.17-16.92,42.02-13.21,62.46,1.87,9.29,3.81,15.31,6.33,21.17ZM555.11,204.12c-1.21,10.92-2.28,21.85-3.3,32.79-.17,1.8-.65,2.14-2.41,1.63-28.61-8.25-48.76-25.99-60.26-53.49-1.75-4.18-2.97-8.51-4.15-13.13,1.29.38,1.91,1.19,2.68,1.78,19.34,14.84,41.04,24.06,65.19,27.43,2.12.3,2.49.95,2.26,3ZM431.42,229.99c-11.99-6.18-16.13-21.35-9.09-32.92,1.31-2.15,1.26-3.89.35-6.12-2.9-7.17-2.41-14.22,1.42-20.96.35-.62.7-2.12,1.6-1.41,1.03.81,3.09,1.22,2.4,3.42-1.49,4.76-1.61,9.57-.43,14.41.66,2.7,1.7,5.23,3.19,7.57.54.85.66,1.44-.03,2.4-8.39,11.71-2.73,27.7,11.13,31.51,1.13.31,1.69.86,2.23,1.92,4.89,9.76,12.83,15.13,23.72,15.96,1.35.1,2.14.51,2.94,1.55,8.59,11.07,25.8,10.14,33.12-1.81.65-1.06,1.24-1.24,2.35-1.06,7.9,1.22,14.95-.78,21.21-5.7.87-.69,3.92-.1,4.42.85.3.57-.16.93-.43,1.31-4.01,5.55-9.41,9.19-16.19,9.66-4.53.32-7.56,1.65-10.68,5.17-8.35,9.45-22.9,9.94-32.4,1.55-2.16-1.91-4.05-2.39-6.84-1.7-12.05,3.01-23.14-2.65-27.93-14.07-.62-1.49-.94-3.1-1.43-4.76.42-3.53-1.62-5.19-4.65-6.75ZM454.66,207c1.19-.02,1.67.2,2.1,1.38,3.96,10.89,14.51,18.06,26.06,17.65,1.54-.06,1.97.39,2.5,1.71,2.31,5.74,6.12,10.29,11.56,13.32,1.43.79,1.19,1.31.33,2.29-2.13,2.42-4.69,4.03-7.45,4.49-6.13,1.18-11.53-1.21-14.46-6.31-1.16-2.02-2.59-2.77-4.98-2.65-9.63.48-17.44-4.74-20.58-13.74-.83-2.38-2.16-3.3-4.53-3.63-9.14-1.28-14.13-11.28-9.89-19.53.69-1.35,1.12-1.48,2.39-.5,4.96,3.87,10.69,5.65,16.96,5.53ZM434.39,175.56c5.24,3.67,10.54,6.88,16.19,9.45,1.8.82,3.61,1.6,5.45,2.31.95.37,1.33.7.87,1.82-1.22,3.03-1.88,6.2-1.79,9.48.03,1.24-.52,1.43-1.65,1.44-12.25.12-21.97-12.13-19.07-24.52ZM496.04,213.7c-5.86,5.21-12.63,6.83-20.07,4.5-7.5-2.35-11.93-7.72-13.65-15.34-.81-3.86-.41-7.58.92-11.25.4-1.09.78-1.55,2.11-1.15,6.1,1.82,12.36,2.85,18.7,3.33,1.04.08,1.62.37,2.11,1.35,2.88,5.75,6.25,11.2,10.31,16.2.94,1.16.34,1.68-.44,2.36ZM501.03,218.38c.6-.59,1.01-.58,1.56,0,5.67,6.08,12.21,11.1,19.11,15.67.05.03.05.13.08.19-9.14,6.89-24.61,4.03-30.04-8.84-.36-.86.02-1.15.67-1.41,3.24-1.32,6.13-3.18,8.62-5.63ZM455.61,120.56c9.46-4.71,18.96-9.36,28.43-14.04,28.94-14.31,57.87-28.63,86.81-42.91.78-.39,1.67-1.38,2.43-.87.77.51.18,1.7.12,2.58-2.86,42.61-5.76,85.22-8.58,127.83-.13,1.94-.67,2.42-2.61,2.22-48.42-5.01-84.16-28.92-107.24-71.78-.27-.5-.51-1-.72-1.43-.34-1.29.79-1.3,1.35-1.58ZM420.47,149.05c9.97-5.25,19.9-10.57,29.8-15.96,1.36-.74,1.83-.42,2.54.8,6.21,10.75,13.78,20.45,22.65,29.12.75.74,1.16,1.51,1.33,2.54,1.12,6.7,2.55,13.31,5.05,19.66.45,1.13.35,1.29-.38,1.43-.56-.06-1.12-.09-1.68-.18-24.54-3.57-44.48-15.08-59.86-34.55-1.1-1.39-1.11-1.99.55-2.86ZM412.49,157.37c1.22-2.29,1.2-2.26,2.87-.21,1.56,1.91,3.99,3.57,4.54,5.73.53,2.08-2.12,3.95-3.06,6.12-3.23,7.51-3.85,15.11-1.11,22.88.43,1.22.34,2.23-.26,3.4-7.55,14.91-2.28,32.26,12.32,40.61.94.54,1.42,1.14,1.63,2.23,3.44,17.42,19.18,27.91,36.74,24.48,1.02-.2,1.7.02,2.49.63,13.49,10.4,31.34,8.67,42.39-4.13.81-.93,1.64-1.38,2.86-1.46,10.28-.65,18.26-5.37,23.94-13.91.8-1.2,1.41-1.35,2.67-.85,2.03.8,4.12,1.5,6.25,1.98,1.76.4,1.86.85.75,2.21-6.72,8.25-14.71,14.96-23.98,20.18-42.06,23.7-96.94,4.38-114.75-40.37-2.23-5.6-3.88-11.35-4.73-15.73-3.16-19.92-.35-37.36,8.42-53.8Z"/>
        <path class="cls-1" d="M511.31,159.73c.23,1.17.57,2.33.67,3.52.18,1.98-1.04,3.64-2.81,3.86-1.93.24-3.37-.63-3.86-2.5-.61-2.3-1.08-4.66-1.39-7.02-.26-1.98,1.04-3.6,2.77-3.89,1.74-.29,3.4.81,3.96,2.73.31,1.08.45,2.2.67,3.3,0,0,0,0-.01,0Z"/>
        <path class="cls-1" d="M550.06,170.55c1.1-.22,2.2-.5,3.31-.64,2.03-.25,3.59.78,4.02,2.57.44,1.8-.46,3.52-2.44,4.05-2.37.63-4.8,1.1-7.23,1.4-1.87.23-3.4-1.07-3.68-2.74-.28-1.65.78-3.31,2.51-3.92.13-.05.27-.08.41-.11,1.03-.21,2.07-.41,3.1-.61Z"/>
        <path class="cls-1" d="M482.52,125.58c.22,1.11.54,2.21.64,3.33.15,1.84-1.07,3.46-2.71,3.79-1.68.34-3.43-.62-3.91-2.46-.62-2.39-1.09-4.82-1.43-7.27-.26-1.87.78-3.11,2.57-3.6,1.7-.46,3.43.48,4.02,2.27.41,1.27.55,2.62.81,3.94,0,0,0,0,.01,0Z"/>
        <path class="cls-1" d="M533.87,152.22c-.51-2.18,4.44-9.4,6.68-9.74,1.3-.2,2.34.24,3.15,1.25.89,1.11,1.05,2.37.34,3.54-1.36,2.21-2.8,4.38-4.34,6.46-.82,1.1-2.11,1.3-3.44.95-1.28-.34-1.95-1.29-2.39-2.46Z"/>
        <path class="cls-1" d="M501.77,130.6c-.43-2.06,4.21-9.23,6.3-9.67,1.25-.26,2.39.08,3.26,1.07.85.97,1.25,2.19.68,3.33-1.29,2.59-2.82,5.1-4.84,7.17-1.79,1.84-4.88.64-5.4-1.9Z"/>
        <path class="cls-1" d="M533.43,126.9c.22,1.11.52,2.21.64,3.33.22,1.99-.95,3.49-2.84,3.82-1.8.31-3.33-.63-3.79-2.54-.55-2.26-1-4.56-1.36-6.86-.31-1.99.85-3.61,2.65-3.95,1.76-.34,3.48.77,4,2.67.31,1.16.48,2.35.72,3.53,0,0,0,0,0,0Z"/>
        <path class="cls-1" d="M554.11,121.83c-.22-1.11-.49-2.21-.65-3.33-.28-1.94.87-3.58,2.69-3.92,1.74-.33,3.46.69,3.88,2.47.55,2.34,1.02,4.7,1.4,7.07.29,1.8-.89,3.44-2.59,3.83-1.75.4-3.54-.72-4.02-2.58-.3-1.16-.48-2.35-.71-3.53Z"/>
        <path class="cls-1" d="M549.36,94.13c-.23-1.18-.57-2.35-.68-3.53-.17-1.9.99-3.51,2.69-3.74,1.83-.24,3.34.53,3.85,2.28.7,2.44,1.18,4.96,1.5,7.47.24,1.88-1.07,3.36-2.85,3.6-1.86.25-3.2-.54-3.74-2.35-.36-1.21-.52-2.49-.76-3.73Z"/>
        <path class="cls-1" d="M524.43,96.43c1.25-.25,2.49-.56,3.74-.73,1.81-.24,3.4.95,3.75,2.68.35,1.73-.66,3.49-2.43,3.9-2.4.57-4.83,1.08-7.28,1.43-1.89.27-3.09-.85-3.63-2.57-.5-1.62.62-3.5,2.31-3.99,1.15-.33,2.35-.49,3.53-.72,0,0,0,0,0,0Z"/>
      </g>
      <path class="cls-1" d="M77.85,187.01c-9.38-4.44-20.68-.85-24.5,9.22-.23.59-.56.79-1.17.71-2.08-.29-4.18-.47-6.25-.83-8.77-1.54-16.98-4.56-24.41-9.53-.97-.65-1.89-1.36-2.83-2.04,1.26-.23,2.39-.13,3.51-.23,6.26-.55,11.46-3.41,16.05-7.52,1.41-1.27,1.37-3.37-.08-4.53-1.55-1.26-3.12-2.53-4.81-3.58-4.84-2.99-10.04-4.62-15.81-3.68-5.16.84-9.59,3.24-13.53,6.57-.76.64-1.52,1.52-1.8,2.43-2.16,6.93-2.72,14.02-1.79,21.21,1.64,12.66,7.05,23.71,14.61,33.81.63.84,1.27,1.67,1.95,2.56-.41.26-.68.43-.95.59-2.03,1.15-3.78,2.66-5.1,4.56-4.63,6.66-4.54,13.57-.63,20.47,2.37,4.19,6.05,7.13,10.23,9.4,7.03,3.81,14.44,4.93,22.24,2.8,2.91-.79,5.5-2.24,7.96-3.93l4.12-4.12c2.06-2.94,3.61-6.1,4.37-9.63,1.05-4.95.74-9.82-.71-14.65-.11-.36-.21-.72-.36-1.24,1.06.29,1.95.56,2.84.78,7.35,1.74,14.37,1.07,20.91-2.93.6-.37,1.19-.77,1.78-1.16l4.12-4.12c.1-.17.18-.34.29-.5,2.04-2.82,3.43-5.94,4.1-9.35,1.53-7.8.03-15.06-4.1-21.78-2.55-4.14-5.77-7.62-10.26-9.75ZM10.73,174.11c3.77-2.34,7.77-3.85,12.31-3.11,2.79.46,5.29,1.66,7.9,3.27-.1.24-.14.64-.35.77-4.26,2.67-8.8,4.21-13.82,2.67-2.05-.63-3.95-1.73-5.91-2.63-.49-.23-.78-.57-.14-.97ZM53.19,250.8c-1.71,7.49-7.73,12.64-15.38,13.44-7.19.75-13.43-1.49-18.88-6.17-2.78-2.39-4.67-5.26-5.2-8.92-.54-3.73.31-7.09,2.95-9.86,1.65-1.73,3.73-2.75,6.09-3.19,1.5-.28,2.44-1.15,2.72-2.66,1.42-7.59,8.88-11.14,15.97-8.32,1.8.71,3.39,1.96,4.41,2.56,6.43,7.01,9.32,14.39,7.32,23.11ZM40.89,218.5c-8.41-1.42-15,1.19-19.64,8.56-5.57-6.95-9.89-14.46-12.63-22.82-2.42-7.38-3.33-18.5-1.82-22.55,10.33,11.45,23.35,17.75,38.38,20.51-4.25,4.76-5.42,10.19-4.29,16.31ZM83.39,200.68c3.19,5.52,4.27,11.41,2.65,17.66-.86,3.34-2.6,6.17-6.07,9.3-4.81,3.97-11.29,4.74-18.26,2.87-4.18-1.12-7.79-3.33-10.87-6.32-4.52-4.38-5.72-11.15-2.55-16.14,1.66-2.61,4.06-4.24,7.09-4.83,1.83-.35,2.79-1.33,3.17-3.15,1.52-7.26,9.24-10.92,16.26-7.79,3.91,1.74,6.51,4.82,8.58,8.4Z"/>
      <path class="cls-1" d="M387.1,60.18c-9.38-4.44-20.68-.85-24.5,9.22-.23.59-.56.79-1.17.71-2.08-.29-4.18-.47-6.25-.83-8.77-1.54-16.98-4.56-24.41-9.53-.97-.65-1.89-1.36-2.83-2.04,1.26-.23,2.39-.13,3.51-.23,6.26-.55,11.46-3.41,16.05-7.52,1.41-1.27,1.37-3.37-.08-4.53-1.55-1.26-3.12-2.53-4.81-3.58-4.84-2.99-10.04-4.62-15.81-3.68-5.16.84-9.59,3.24-13.53,6.57-.76.64-1.52,1.52-1.8,2.43-2.16,6.93-2.72,14.02-1.79,21.21,1.64,12.66,7.05,23.71,14.61,33.81.63.84,1.27,1.67,1.95,2.56-.41.26-.68.43-.95.59-2.03,1.15-3.78,2.66-5.1,4.56-4.63,6.66-4.54,13.57-.63,20.47,2.37,4.19,6.05,7.13,10.23,9.4,7.03,3.81,14.44,4.93,22.24,2.8,2.91-.79,5.5-2.24,7.96-3.93l4.12-4.12c2.06-2.94,3.61-6.1,4.37-9.63,1.05-4.95.74-9.82-.71-14.65-.11-.36-.21-.72-.36-1.24,1.06.29,1.95.56,2.84.78,7.35,1.74,14.37,1.07,20.91-2.93.6-.37,1.19-.77,1.78-1.16,1.37-1.37,2.75-2.75,4.12-4.12.1-.17.18-.34.29-.5,2.04-2.82,3.43-5.94,4.1-9.35,1.53-7.8.03-15.06-4.1-21.78-2.55-4.14-5.77-7.62-10.26-9.75ZM319.98,47.28c3.77-2.34,7.77-3.85,12.31-3.11,2.79.46,5.29,1.66,7.9,3.27-.1.24-.14.64-.35.77-4.26,2.67-8.8,4.21-13.82,2.67-2.05-.63-3.95-1.73-5.91-2.63-.49-.23-.78-.57-.14-.97ZM362.44,123.97c-1.71,7.49-7.73,12.64-15.38,13.44-7.19.75-13.43-1.49-18.88-6.17-2.78-2.39-4.67-5.26-5.2-8.92-.54-3.73.31-7.09,2.95-9.86,1.65-1.73,3.73-2.75,6.09-3.19,1.5-.28,2.44-1.15,2.72-2.66,1.42-7.59,8.88-11.14,15.97-8.32,1.8.71,3.39,1.96,4.41,2.56,6.43,7.01,9.32,14.39,7.32,23.11ZM350.13,91.67c-8.41-1.42-15,1.19-19.64,8.56-5.57-6.95-9.89-14.46-12.63-22.82-2.42-7.38-3.33-18.5-1.82-22.55,10.33,11.45,23.35,17.75,38.38,20.51-4.25,4.76-5.42,10.19-4.29,16.31ZM392.63,73.85c3.19,5.52,4.27,11.41,2.65,17.66-.86,3.34-2.6,6.17-6.07,9.3-4.81,3.97-11.29,4.74-18.26,2.87-4.18-1.12-7.79-3.33-10.87-6.32-4.52-4.38-5.72-11.15-2.55-16.14,1.66-2.61,4.06-4.24,7.09-4.83,1.83-.35,2.79-1.33,3.17-3.15,1.52-7.26,9.24-10.92,16.26-7.79,3.91,1.74,6.51,4.82,8.58,8.4Z"/>
      <path class="cls-1" d="M424.75,323.02c-9.38-4.44-20.68-.85-24.5,9.22-.23.59-.56.79-1.17.71-2.08-.29-4.18-.47-6.25-.83-8.77-1.54-16.98-4.56-24.41-9.53-.97-.65-1.89-1.36-2.83-2.04,1.26-.23,2.39-.13,3.51-.23,6.26-.55,11.46-3.41,16.05-7.52,1.41-1.27,1.37-3.37-.08-4.53-1.55-1.26-3.12-2.53-4.81-3.58-4.84-2.99-10.04-4.62-15.81-3.68-5.16.84-9.59,3.24-13.53,6.57-.76.64-1.52,1.52-1.8,2.43-2.16,6.93-2.72,14.02-1.79,21.21,1.64,12.66,7.05,23.71,14.61,33.81.63.84,1.27,1.67,1.95,2.56-.41.26-.68.43-.95.59-2.03,1.15-3.78,2.66-5.1,4.56-4.63,6.66-4.54,13.57-.63,20.47,2.37,4.19,6.05,7.13,10.23,9.4,7.03,3.81,14.44,4.93,22.24,2.8,2.91-.79,5.5-2.24,7.96-3.93l4.12-4.12c2.06-2.94,3.61-6.1,4.37-9.63,1.05-4.95.74-9.82-.71-14.65-.11-.36-.21-.72-.36-1.24,1.06.29,1.95.56,2.84.78,7.35,1.74,14.37,1.07,20.91-2.93.6-.37,1.19-.77,1.78-1.16l4.12-4.12c.1-.17.18-.34.29-.5,2.04-2.82,3.43-5.94,4.1-9.35,1.53-7.8.03-15.06-4.1-21.78-2.55-4.14-5.77-7.62-10.26-9.75ZM357.63,310.12c3.77-2.34,7.77-3.85,12.31-3.11,2.79.46,5.29,1.66,7.9,3.27-.1.24-.14.64-.35.77-4.26,2.67-8.8,4.21-13.82,2.67-2.05-.63-3.95-1.73-5.91-2.63-.49-.23-.78-.57-.14-.97ZM400.09,386.81c-1.71,7.49-7.73,12.64-15.38,13.44-7.19.75-13.43-1.49-18.88-6.17-2.78-2.39-4.67-5.26-5.2-8.92-.54-3.73.31-7.09,2.95-9.86,1.65-1.73,3.73-2.75,6.09-3.19,1.5-.28,2.44-1.15,2.72-2.66,1.42-7.59,8.88-11.14,15.97-8.32,1.8.71,3.39,1.96,4.41,2.56,6.43,7.01,9.32,14.39,7.32,23.11ZM387.78,354.51c-8.41-1.42-15,1.19-19.64,8.56-5.57-6.95-9.89-14.46-12.63-22.82-2.42-7.38-3.33-18.5-1.82-22.55,10.33,11.45,23.35,17.75,38.38,20.51-4.25,4.76-5.42,10.19-4.29,16.31ZM430.29,336.7c3.19,5.52,4.27,11.41,2.65,17.66-.86,3.34-2.6,6.17-6.07,9.3-4.81,3.97-11.29,4.74-18.26,2.87-4.18-1.12-7.79-3.33-10.87-6.32-4.52-4.38-5.72-11.15-2.55-16.14,1.66-2.61,4.06-4.24,7.09-4.83,1.83-.35,2.79-1.33,3.17-3.15,1.52-7.26,9.24-10.92,16.26-7.79,3.91,1.74,6.51,4.82,8.58,8.4Z"/>
      <path class="cls-1" d="M449.66,479.31c-9.38-4.44-20.68-.85-24.5,9.22-.23.59-.56.79-1.17.71-2.08-.29-4.18-.47-6.25-.83-8.77-1.54-16.98-4.56-24.41-9.53-.97-.65-1.89-1.36-2.83-2.04,1.26-.23,2.39-.13,3.51-.23,6.26-.55,11.46-3.41,16.05-7.52,1.41-1.27,1.37-3.37-.08-4.53-1.55-1.26-3.12-2.53-4.81-3.58-4.84-2.99-10.04-4.62-15.81-3.68-5.16.84-9.59,3.24-13.53,6.57-.76.64-1.52,1.52-1.8,2.43-2.16,6.93-2.72,14.02-1.79,21.21,1.64,12.66,7.05,23.71,14.61,33.81.63.84,1.27,1.67,1.95,2.56-.41.26-.68.43-.95.59-2.03,1.15-3.78,2.66-5.1,4.56-4.63,6.66-4.54,13.57-.63,20.47,2.37,4.19,6.05,7.13,10.23,9.4,7.03,3.81,14.44,4.93,22.24,2.8,2.91-.79,5.5-2.24,7.96-3.93l4.12-4.12c2.06-2.94,3.61-6.1,4.37-9.63,1.05-4.95.74-9.82-.71-14.65-.11-.36-.21-.72-.36-1.24,1.06.29,1.95.56,2.84.78,7.35,1.74,14.37,1.07,20.91-2.93.6-.37,1.19-.77,1.78-1.16,1.37-1.37,2.75-2.75,4.12-4.12.1-.17.18-.34.29-.5,2.04-2.82,3.43-5.94,4.1-9.35,1.53-7.8.03-15.06-4.1-21.78-2.55-4.14-5.77-7.62-10.26-9.75ZM382.54,466.41c3.77-2.34,7.77-3.85,12.31-3.11,2.79.46,5.29,1.66,7.9,3.27-.1.24-.14.64-.35.77-4.26,2.67-8.8,4.21-13.82,2.67-2.05-.63-3.95-1.73-5.91-2.63-.49-.23-.78-.57-.14-.97ZM425,543.1c-1.71,7.49-7.73,12.64-15.38,13.44-7.19.75-13.43-1.49-18.88-6.17-2.78-2.39-4.67-5.26-5.2-8.92-.54-3.73.31-7.09,2.95-9.86,1.65-1.73,3.73-2.75,6.09-3.19,1.5-.28,2.44-1.15,2.72-2.66,1.42-7.59,8.88-11.14,15.97-8.32,1.8.71,3.39,1.96,4.41,2.56,6.43,7.01,9.32,14.39,7.32,23.11ZM412.69,510.8c-8.41-1.42-15,1.19-19.64,8.56-5.57-6.95-9.89-14.46-12.63-22.82-2.42-7.38-3.33-18.5-1.82-22.55,10.33,11.45,23.35,17.75,38.38,20.51-4.25,4.76-5.42,10.19-4.29,16.31ZM455.2,492.98c3.19,5.52,4.27,11.41,2.65,17.66-.86,3.34-2.6,6.17-6.07,9.3-4.81,3.97-11.29,4.74-18.26,2.87-4.18-1.12-7.79-3.33-10.87-6.32-4.52-4.38-5.72-11.15-2.55-16.14,1.66-2.61,4.06-4.24,7.09-4.83,1.83-.35,2.79-1.33,3.17-3.15,1.52-7.26,9.24-10.92,16.26-7.79,3.91,1.74,6.51,4.82,8.58,8.4Z"/>
      <g>
        <path class="cls-1" d="M293.67,512.08c-4.84-7.78-12.12-12.28-21.15-13.88-.29-.05-.56-.16-.93-.26.48-.72.91-1.3,1.27-1.93,2.48-4.36,3.09-8.91,1.55-13.75-.97-3.05-2.56-3.9-5.48-2.67-4.75,1.99-9.5,3.97-14.24,5.99-.64.27-1.05.25-1.52-.32-1.59-1.94-3.66-3.18-6-3.99-2.56-.89-5.14-1.75-7.71-2.62-2.13-.72-3.59-.15-4.58,1.85-1.25,2.52-2.48,5.06-3.67,7.62-1.02,2.18-1.54,4.47-1.27,6.89.08.71-.19,1.05-.84,1.32-4.92,2.03-9.83,4.1-14.73,6.17-2.1.89-2.86,2.69-1.88,4.76,2.49,5.25,6.57,8.51,12.34,9.54.4.07.79.14,1.31.23-.24.39-.38.66-.55.91-4.43,6.41-6.3,13.5-5.52,21.24.64,6.36,3.12,12.09,6.55,17.39,4.4,6.79,10.46,11.61,18.2,14.07,6.56,2.09,13.21,3.88,19.83,5.79,3.76,1.08,7.48,2.52,11.53,1.61,1.28-.54,2.57-1.08,3.85-1.61,2.21-1.6,3.85-3.65,5.12-6.07,2.17-4.12,4.46-8.18,6.67-12.29,1.89-3.52,4-6.96,5.54-10.64,5.21-12.4,3.2-24.23-3.7-35.32ZM253.2,494.35c.96-1,2.17-1.88,3.43-2.45,3.7-1.69,7.47-3.19,11.22-4.77.22-.09.46-.13.83-.24.02.47.1.87.06,1.26-.44,3.93-2.35,6.87-6,8.49-3.71,1.65-7.49,3.17-11.24,4.74-.24.1-.51.16-.88.27-.15-2.88.68-5.33,2.58-7.31ZM236.37,493.83c.07-.55.05-1.14.25-1.64.93-2.2,1.93-4.37,2.97-6.69,2.3.82,4.39,1.56,6.48,2.32.38.14.74.39,1.08.63,1.45,1.04,1.34,1.08.37,2.58-1.03,1.59-1.79,3.35-2.66,5.04-.15.3-.22.63-.27.76-1.24-.42-2.4-.88-3.6-1.2-1.2-.32-2.44-.57-3.67-.7-.78-.08-1.05-.38-.95-1.1ZM220.94,507.98c-.23-.19-.43-.43-.81-.83.72-.3,1.25-.53,1.79-.75,3.69-1.53,7.36-3.11,11.07-4.58,3.17-1.26,7.81-.08,10.09,2.44.11.12.18.28.3.46-.26.14-.46.27-.68.36-3.78,1.59-7.53,3.25-11.35,4.73-3.78,1.46-7.3.77-10.42-1.83ZM292.42,525.02c1.51,4.81,1.69,9.69.67,14.62-.82,3.97-2.7,7.5-4.63,11.02-3.13,5.7-6.24,11.41-9.34,17.13-1.94,3.57-4.53,4.68-8.42,3.58-7.36-2.09-14.72-4.18-22.07-6.29-7.98-2.3-14-7.11-17.98-14.38-2.07-3.79-3.69-7.79-4.07-12.17-.83-9.43,2.72-16.96,10.02-22.82,2.1-1.69,4.49-2.88,6.99-3.87,2.04-.81,4.04-1.69,6.07-2.54h0c2.57-1.07,5.12-2.16,7.7-3.22,10.53-4.32,23-.97,29.89,8.09,2.47,3.25,3.96,7,5.17,10.86Z"/>
        <path class="cls-1" d="M258.93,549.13c.42.99.85,1.98,1.25,2.98.67,1.71.04,3.47-1.5,4.29-1.42.76-3.4.27-4.21-1.35-1.13-2.26-2.1-4.61-2.91-7-.56-1.66.46-3.3,2.02-3.83,1.59-.54,3.33.23,4.06,1.84.46,1.01.87,2.05,1.3,3.07Z"/>
        <path class="cls-1" d="M238.43,543.15c-.4-.96-.83-1.91-1.2-2.88-.73-1.9-.01-3.71,1.72-4.42,1.69-.7,3.49.04,4.29,1.85.88,1.97,1.71,3.95,2.5,5.95.72,1.83-.05,3.61-1.76,4.31-1.71.71-3.47-.03-4.29-1.84-.45-.98-.84-1.98-1.25-2.97Z"/>
        <path class="cls-1" d="M273.38,557.66c.43,1.02.88,2.04,1.29,3.08.65,1.66-.02,3.4-1.56,4.15-1.55.75-3.42.22-4.18-1.38-1.07-2.25-2.03-4.56-2.89-6.9-.58-1.56.42-3.36,1.94-3.89,1.58-.54,3.34.17,4.03,1.69.49,1.07.92,2.17,1.38,3.26Z"/>
        <path class="cls-1" d="M246.27,526.31c-.39,1-.76,2.01-1.18,3-.69,1.63-2.32,2.45-3.88,1.99-1.73-.51-2.81-2.09-2.25-3.86.77-2.44,1.72-4.83,2.83-7.14.77-1.61,2.51-1.98,4.11-1.23,1.48.7,2.16,2.31,1.66,3.94-.02.07-.04.13-.07.2-.4,1.03-.81,2.07-1.21,3.1Z"/>
        <path class="cls-1" d="M263,532.92c.44,1.06.91,2.1,1.32,3.17.61,1.6-.09,3.29-1.62,4.01-1.62.76-3.41.26-4.16-1.35-1.04-2.22-2.01-4.5-2.85-6.8-.63-1.71.31-3.36,2.03-3.97,1.56-.56,3.25.19,3.95,1.78.47,1.05.89,2.11,1.33,3.17Z"/>
        <path class="cls-1" d="M281.69,525.06c.44,1.24.97,2.45,1.3,3.72.42,1.64-.49,3.11-2.1,3.68-1.51.53-3.19-.06-3.88-1.55-1.02-2.2-1.96-4.45-2.81-6.72-.57-1.52.24-3.16,1.67-3.84,1.52-.72,3.15-.26,4.1,1.14.14.2.29.39.39.61.43.99.84,1.98,1.25,2.97.03,0,.05-.02.08-.03Z"/>
        <path class="cls-1" d="M277.44,541.42c.46,1.09.95,2.16,1.36,3.27.58,1.57-.2,3.32-1.72,4-1.5.67-3.48-.02-4.16-1.55-.97-2.19-1.9-4.4-2.78-6.63-.61-1.55.22-3.32,1.74-3.99,1.58-.69,3.4-.04,4.14,1.54.52,1.1.95,2.24,1.42,3.36Z"/>
        <path class="cls-1" d="M265.85,513.68c1.09.45,2.21.86,3.28,1.35,1.59.74,2.22,2.49,1.52,4.13-.66,1.56-2.38,2.37-3.96,1.76-2.21-.85-4.4-1.75-6.57-2.68-1.59-.69-2.25-2.5-1.58-4.12.66-1.59,2.32-2.38,3.93-1.81,1.15.41,2.26.91,3.38,1.37Z"/>
      </g>
      <g>
        <path class="cls-1" d="M698.07,221.22c-4.84-7.78-12.12-12.28-21.15-13.88-.29-.05-.56-.16-.93-.26.48-.72.91-1.3,1.27-1.93,2.48-4.36,3.09-8.91,1.55-13.75-.97-3.05-2.56-3.9-5.48-2.67-4.75,1.99-9.5,3.97-14.24,5.99-.64.27-1.05.25-1.52-.32-1.59-1.94-3.66-3.18-6-3.99-2.56-.89-5.14-1.75-7.71-2.62-2.13-.72-3.59-.15-4.58,1.85-1.25,2.52-2.48,5.06-3.67,7.62-1.02,2.18-1.54,4.47-1.27,6.89.08.71-.19,1.05-.84,1.32-4.92,2.03-9.83,4.1-14.73,6.17-2.1.89-2.86,2.69-1.88,4.76,2.49,5.25,6.57,8.51,12.34,9.54.4.07.79.14,1.31.23-.24.39-.38.66-.55.91-4.43,6.41-6.3,13.5-5.52,21.24.64,6.36,3.12,12.09,6.55,17.39,4.4,6.79,10.46,11.61,18.2,14.07,6.56,2.09,13.21,3.88,19.83,5.79,3.76,1.08,7.48,2.52,11.53,1.61l3.85-1.61c2.21-1.6,3.85-3.65,5.12-6.07,2.17-4.12,4.46-8.18,6.67-12.29,1.89-3.52,4-6.96,5.54-10.64,5.21-12.4,3.2-24.23-3.7-35.32ZM657.59,203.5c.96-1,2.17-1.88,3.43-2.45,3.7-1.69,7.47-3.19,11.22-4.77.22-.09.46-.13.83-.24.02.47.1.87.06,1.26-.44,3.93-2.35,6.87-6,8.49-3.71,1.65-7.49,3.17-11.24,4.74-.24.1-.51.16-.88.27-.15-2.88.68-5.33,2.58-7.31ZM640.76,202.98c.07-.55.05-1.14.25-1.64.93-2.2,1.93-4.37,2.97-6.69,2.3.82,4.39,1.56,6.48,2.32.38.14.74.39,1.08.63,1.45,1.04,1.34,1.08.37,2.58-1.03,1.59-1.79,3.35-2.66,5.04-.15.3-.22.63-.27.76-1.24-.42-2.4-.88-3.6-1.2-1.2-.32-2.44-.57-3.67-.7-.78-.08-1.05-.38-.95-1.1ZM625.33,217.12c-.23-.19-.43-.43-.81-.83.72-.3,1.25-.53,1.79-.75,3.69-1.53,7.36-3.11,11.07-4.58,3.17-1.26,7.81-.08,10.09,2.44.11.12.18.28.3.46-.26.14-.46.27-.68.36-3.78,1.59-7.53,3.25-11.35,4.73-3.78,1.46-7.3.77-10.42-1.83ZM696.82,234.16c1.51,4.81,1.69,9.69.67,14.62-.82,3.97-2.7,7.5-4.63,11.02-3.13,5.7-6.24,11.41-9.34,17.13-1.94,3.57-4.53,4.68-8.42,3.58-7.36-2.09-14.72-4.18-22.07-6.29-7.98-2.3-14-7.11-17.98-14.38-2.07-3.79-3.69-7.79-4.07-12.17-.83-9.43,2.72-16.96,10.02-22.82,2.1-1.69,4.49-2.88,6.99-3.87,2.04-.81,4.04-1.69,6.07-2.54h0c2.57-1.07,5.12-2.16,7.7-3.22,10.53-4.32,23-.97,29.89,8.09,2.47,3.25,3.96,7,5.17,10.86Z"/>
        <path class="cls-1" d="M663.32,258.27c.42.99.85,1.98,1.25,2.98.67,1.71.04,3.47-1.5,4.29-1.42.76-3.4.27-4.21-1.35-1.13-2.26-2.1-4.61-2.91-7-.56-1.66.46-3.3,2.02-3.83,1.59-.54,3.33.23,4.06,1.84.46,1.01.87,2.05,1.3,3.07Z"/>
        <path class="cls-1" d="M642.82,252.29c-.4-.96-.83-1.91-1.2-2.88-.73-1.9-.01-3.71,1.72-4.42,1.69-.7,3.49.04,4.29,1.85.88,1.97,1.71,3.95,2.5,5.95.72,1.83-.05,3.61-1.76,4.31-1.71.71-3.47-.03-4.29-1.84-.45-.98-.84-1.98-1.25-2.97Z"/>
        <path class="cls-1" d="M677.77,266.8c.43,1.02.88,2.04,1.29,3.08.65,1.66-.02,3.4-1.56,4.15-1.55.75-3.42.22-4.18-1.38-1.07-2.25-2.03-4.56-2.89-6.9-.58-1.56.42-3.36,1.94-3.89,1.58-.54,3.34.17,4.03,1.69.49,1.07.92,2.17,1.38,3.26Z"/>
        <path class="cls-1" d="M650.66,235.45c-.39,1-.76,2.01-1.18,3-.69,1.63-2.32,2.45-3.88,1.99-1.73-.51-2.81-2.09-2.25-3.86.77-2.44,1.72-4.83,2.83-7.14.77-1.61,2.51-1.98,4.11-1.23,1.48.7,2.16,2.31,1.66,3.94-.02.07-.04.13-.07.2-.4,1.03-.81,2.07-1.21,3.1Z"/>
        <path class="cls-1" d="M667.39,242.06c.44,1.06.91,2.1,1.32,3.17.61,1.6-.09,3.29-1.62,4.01-1.62.76-3.41.26-4.16-1.35-1.04-2.22-2.01-4.5-2.85-6.8-.63-1.71.31-3.36,2.03-3.97,1.56-.56,3.25.19,3.95,1.78.47,1.05.89,2.11,1.33,3.17Z"/>
        <path class="cls-1" d="M686.08,234.2c.44,1.24.97,2.45,1.3,3.72.42,1.64-.49,3.11-2.1,3.68-1.51.53-3.19-.06-3.88-1.55-1.02-2.2-1.96-4.45-2.81-6.72-.57-1.52.24-3.16,1.67-3.84,1.52-.72,3.15-.26,4.1,1.14.14.2.29.39.39.61.43.99.84,1.98,1.25,2.97.03,0,.05-.02.08-.03Z"/>
        <path class="cls-1" d="M681.84,250.56c.46,1.09.95,2.16,1.36,3.27.58,1.57-.2,3.32-1.72,4-1.5.67-3.48-.02-4.16-1.55-.97-2.19-1.9-4.4-2.78-6.63-.61-1.55.22-3.32,1.74-3.99,1.58-.69,3.4-.04,4.14,1.54.52,1.1.95,2.24,1.42,3.36Z"/>
        <path class="cls-1" d="M670.24,222.82c1.09.45,2.21.86,3.28,1.35,1.59.74,2.22,2.49,1.52,4.13-.66,1.56-2.38,2.37-3.96,1.76-2.21-.85-4.4-1.75-6.57-2.68-1.59-.69-2.25-2.5-1.58-4.12.66-1.59,2.32-2.38,3.93-1.81,1.15.41,2.26.91,3.38,1.37Z"/>
      </g>
      <g>
        <path class="cls-1" d="M269.16,181.22c-4.84-7.78-12.12-12.28-21.15-13.88-.29-.05-.56-.16-.93-.26.48-.72.91-1.3,1.27-1.93,2.48-4.36,3.09-8.91,1.55-13.75-.97-3.05-2.56-3.9-5.48-2.67-4.75,1.99-9.5,3.97-14.24,5.99-.64.27-1.05.25-1.52-.32-1.59-1.94-3.66-3.18-6-3.99-2.56-.89-5.14-1.75-7.71-2.62-2.13-.72-3.59-.15-4.58,1.85-1.25,2.52-2.48,5.06-3.67,7.62-1.02,2.18-1.54,4.47-1.27,6.89.08.71-.19,1.05-.84,1.32-4.92,2.03-9.83,4.1-14.73,6.17-2.1.89-2.86,2.69-1.88,4.76,2.49,5.25,6.57,8.51,12.34,9.54.4.07.79.14,1.31.23-.24.39-.38.66-.55.91-4.43,6.41-6.3,13.5-5.52,21.24.64,6.36,3.12,12.09,6.55,17.39,4.4,6.79,10.46,11.61,18.2,14.07,6.56,2.09,13.21,3.88,19.83,5.79,3.76,1.08,7.48,2.52,11.53,1.61l3.85-1.61c2.21-1.6,3.85-3.65,5.12-6.07,2.17-4.12,4.46-8.18,6.67-12.29,1.89-3.52,4-6.96,5.54-10.64,5.21-12.4,3.2-24.23-3.7-35.32ZM228.68,163.49c.96-1,2.17-1.88,3.43-2.45,3.7-1.69,7.47-3.19,11.22-4.77.22-.09.46-.13.83-.24.02.47.1.87.06,1.26-.44,3.93-2.35,6.87-6,8.49-3.71,1.65-7.49,3.17-11.24,4.74-.24.1-.51.16-.88.27-.15-2.88.68-5.33,2.58-7.31ZM211.86,162.97c.07-.55.05-1.14.25-1.64.93-2.2,1.93-4.37,2.97-6.69,2.3.82,4.39,1.56,6.48,2.32.38.14.74.39,1.08.63,1.45,1.04,1.34,1.08.37,2.58-1.03,1.59-1.79,3.35-2.66,5.04-.15.3-.22.63-.27.76-1.24-.42-2.4-.88-3.6-1.2-1.2-.32-2.44-.57-3.67-.7-.78-.08-1.05-.38-.95-1.1ZM196.42,177.11c-.23-.19-.43-.43-.81-.83.72-.3,1.25-.53,1.79-.75,3.69-1.53,7.36-3.11,11.07-4.58,3.17-1.26,7.81-.08,10.09,2.44.11.12.18.28.3.46-.26.14-.46.27-.68.36-3.78,1.59-7.53,3.25-11.35,4.73-3.78,1.46-7.3.77-10.42-1.83ZM267.91,194.16c1.51,4.81,1.69,9.69.67,14.62-.82,3.97-2.7,7.5-4.63,11.02-3.13,5.7-6.24,11.41-9.34,17.13-1.94,3.57-4.53,4.68-8.42,3.58-7.36-2.09-14.72-4.18-22.07-6.29-7.98-2.3-14-7.11-17.98-14.38-2.07-3.79-3.69-7.79-4.07-12.17-.83-9.43,2.72-16.96,10.02-22.82,2.1-1.69,4.49-2.88,6.99-3.87,2.04-.81,4.04-1.69,6.07-2.54h0c2.57-1.07,5.12-2.16,7.7-3.22,10.53-4.32,23-.97,29.89,8.09,2.47,3.25,3.96,7,5.17,10.86Z"/>
        <path class="cls-1" d="M234.42,218.26c.42.99.85,1.98,1.25,2.98.67,1.71.04,3.47-1.5,4.29-1.42.76-3.4.27-4.21-1.35-1.13-2.26-2.1-4.61-2.91-7-.56-1.66.46-3.3,2.02-3.83,1.59-.54,3.33.23,4.06,1.84.46,1.01.87,2.05,1.3,3.07Z"/>
        <path class="cls-1" d="M213.91,212.28c-.4-.96-.83-1.91-1.2-2.88-.73-1.9-.01-3.71,1.72-4.42,1.69-.7,3.49.04,4.29,1.85.88,1.97,1.71,3.95,2.5,5.95.72,1.83-.05,3.61-1.76,4.31-1.71.71-3.47-.03-4.29-1.84-.45-.98-.84-1.98-1.25-2.97Z"/>
        <path class="cls-1" d="M248.86,226.79c.43,1.02.88,2.04,1.29,3.08.65,1.66-.02,3.4-1.56,4.15-1.55.75-3.42.22-4.18-1.38-1.07-2.25-2.03-4.56-2.89-6.9-.58-1.56.42-3.36,1.94-3.89,1.58-.54,3.34.17,4.03,1.69.49,1.07.92,2.17,1.38,3.26Z"/>
        <path class="cls-1" d="M221.76,195.44c-.39,1-.76,2.01-1.18,3-.69,1.63-2.32,2.45-3.88,1.99-1.73-.51-2.81-2.09-2.25-3.86.77-2.44,1.72-4.83,2.83-7.14.77-1.61,2.51-1.98,4.11-1.23,1.48.7,2.16,2.31,1.66,3.94-.02.07-.04.13-.07.2-.4,1.03-.81,2.07-1.21,3.1Z"/>
        <path class="cls-1" d="M238.49,202.05c.44,1.06.91,2.1,1.32,3.17.61,1.6-.09,3.29-1.62,4.01-1.62.76-3.41.26-4.16-1.35-1.04-2.22-2.01-4.5-2.85-6.8-.63-1.71.31-3.36,2.03-3.97,1.56-.56,3.25.19,3.95,1.78.47,1.05.89,2.11,1.33,3.17Z"/>
        <path class="cls-1" d="M257.18,194.2c.44,1.24.97,2.45,1.3,3.72.42,1.64-.49,3.11-2.1,3.68-1.51.53-3.19-.06-3.88-1.55-1.02-2.2-1.96-4.45-2.81-6.72-.57-1.52.24-3.16,1.67-3.84,1.52-.72,3.15-.26,4.1,1.14.14.2.29.39.39.61.43.99.84,1.98,1.25,2.97.03,0,.05-.02.08-.03Z"/>
        <path class="cls-1" d="M252.93,210.56c.46,1.09.95,2.16,1.36,3.27.58,1.57-.2,3.32-1.72,4-1.5.67-3.48-.02-4.16-1.55-.97-2.19-1.9-4.4-2.78-6.63-.61-1.55.22-3.32,1.74-3.99,1.58-.69,3.4-.04,4.14,1.54.52,1.1.95,2.24,1.42,3.36Z"/>
        <path class="cls-1" d="M241.34,182.82c1.09.45,2.21.86,3.28,1.35,1.59.74,2.22,2.49,1.52,4.13-.66,1.56-2.38,2.37-3.96,1.76-2.21-.85-4.4-1.75-6.57-2.68-1.59-.69-2.25-2.5-1.58-4.12.66-1.59,2.32-2.38,3.93-1.81,1.15.41,2.26.91,3.38,1.37Z"/>
      </g>
      <g>
        <path class="cls-1" d="M154.86,44.41c-4.84-7.78-12.12-12.28-21.15-13.88-.29-.05-.56-.16-.93-.26.48-.72.91-1.3,1.27-1.93,2.48-4.36,3.09-8.91,1.55-13.75-.97-3.05-2.56-3.9-5.48-2.67-4.75,1.99-9.5,3.97-14.24,5.99-.64.27-1.05.25-1.52-.32-1.59-1.94-3.66-3.18-6-3.99-2.56-.89-5.14-1.75-7.71-2.62-2.13-.72-3.59-.15-4.58,1.85-1.25,2.52-2.48,5.06-3.67,7.62-1.02,2.18-1.54,4.47-1.27,6.89.08.71-.19,1.05-.84,1.32-4.92,2.03-9.83,4.1-14.73,6.17-2.1.89-2.86,2.69-1.88,4.76,2.49,5.25,6.57,8.51,12.34,9.54.4.07.79.14,1.31.23-.24.39-.38.66-.55.91-4.43,6.41-6.3,13.5-5.52,21.24.64,6.36,3.12,12.09,6.55,17.39,4.4,6.79,10.46,11.61,18.2,14.07,6.56,2.09,13.21,3.88,19.83,5.79,3.76,1.08,7.48,2.52,11.53,1.61l3.85-1.61c2.21-1.6,3.85-3.65,5.12-6.07,2.17-4.12,4.46-8.18,6.67-12.29,1.89-3.52,4-6.96,5.54-10.64,5.21-12.4,3.2-24.23-3.7-35.32ZM114.38,26.68c.96-1,2.17-1.88,3.43-2.45,3.7-1.69,7.47-3.19,11.22-4.77.22-.09.46-.13.83-.24.02.47.1.87.06,1.26-.44,3.93-2.35,6.87-6,8.49-3.71,1.65-7.49,3.17-11.24,4.74-.24.1-.51.16-.88.27-.15-2.88.68-5.33,2.58-7.31ZM97.55,26.16c.07-.55.05-1.14.25-1.64.93-2.2,1.93-4.37,2.97-6.69,2.3.82,4.39,1.56,6.48,2.32.38.14.74.39,1.08.63,1.45,1.04,1.34,1.08.37,2.58-1.03,1.59-1.79,3.35-2.66,5.04-.15.3-.22.63-.27.76-1.24-.42-2.4-.88-3.6-1.2-1.2-.32-2.44-.57-3.67-.7-.78-.08-1.05-.38-.95-1.1ZM82.12,40.31c-.23-.19-.43-.43-.81-.83.72-.3,1.25-.53,1.79-.75,3.69-1.53,7.36-3.11,11.07-4.58,3.17-1.26,7.81-.08,10.09,2.44.11.12.18.28.3.46-.26.14-.46.27-.68.36-3.78,1.59-7.53,3.25-11.35,4.73-3.78,1.46-7.3.77-10.42-1.83ZM153.61,57.35c1.51,4.81,1.69,9.69.67,14.62-.82,3.97-2.7,7.5-4.63,11.02-3.13,5.7-6.24,11.41-9.34,17.13-1.94,3.57-4.53,4.68-8.42,3.58-7.36-2.09-14.72-4.18-22.07-6.29-7.98-2.3-14-7.11-17.98-14.38-2.07-3.79-3.69-7.79-4.07-12.17-.83-9.43,2.72-16.96,10.02-22.82,2.1-1.69,4.49-2.88,6.99-3.87,2.04-.81,4.04-1.69,6.07-2.54h0c2.57-1.07,5.12-2.16,7.7-3.22,10.53-4.32,23-.97,29.89,8.09,2.47,3.25,3.96,7,5.17,10.86Z"/>
        <path class="cls-1" d="M120.11,81.46c.42.99.85,1.98,1.25,2.98.67,1.71.04,3.47-1.5,4.29-1.42.76-3.4.27-4.21-1.35-1.13-2.26-2.1-4.61-2.91-7-.56-1.66.46-3.3,2.02-3.83,1.59-.54,3.33.23,4.06,1.84.46,1.01.87,2.05,1.3,3.07Z"/>
        <path class="cls-1" d="M99.61,75.48c-.4-.96-.83-1.91-1.2-2.88-.73-1.9-.01-3.71,1.72-4.42,1.69-.7,3.49.04,4.29,1.85.88,1.97,1.71,3.95,2.5,5.95.72,1.83-.05,3.61-1.76,4.31-1.71.71-3.47-.03-4.29-1.84-.45-.98-.84-1.98-1.25-2.97Z"/>
        <path class="cls-1" d="M134.56,89.99c.43,1.02.88,2.04,1.29,3.08.65,1.66-.02,3.4-1.56,4.15-1.55.75-3.42.22-4.18-1.38-1.07-2.25-2.03-4.56-2.89-6.9-.58-1.56.42-3.36,1.94-3.89,1.58-.54,3.34.17,4.03,1.69.49,1.07.92,2.17,1.38,3.26Z"/>
        <path class="cls-1" d="M107.45,58.64c-.39,1-.76,2.01-1.18,3-.69,1.63-2.32,2.45-3.88,1.99-1.73-.51-2.81-2.09-2.25-3.86.77-2.44,1.72-4.83,2.83-7.14.77-1.61,2.51-1.98,4.11-1.23,1.48.7,2.16,2.31,1.66,3.94-.02.07-.04.13-.07.2-.4,1.03-.81,2.07-1.21,3.1Z"/>
        <path class="cls-1" d="M124.18,65.25c.44,1.06.91,2.1,1.32,3.17.61,1.6-.09,3.29-1.62,4.01-1.62.76-3.41.26-4.16-1.35-1.04-2.22-2.01-4.5-2.85-6.8-.63-1.71.31-3.36,2.03-3.97,1.56-.56,3.25.19,3.95,1.78.47,1.05.89,2.11,1.33,3.17Z"/>
        <path class="cls-1" d="M142.87,57.39c.44,1.24.97,2.45,1.3,3.72.42,1.64-.49,3.11-2.1,3.68-1.51.53-3.19-.06-3.88-1.55-1.02-2.2-1.96-4.45-2.81-6.72-.57-1.52.24-3.16,1.67-3.84,1.52-.72,3.15-.26,4.1,1.14.14.2.29.39.39.61.43.99.84,1.98,1.25,2.97.03,0,.05-.02.08-.03Z"/>
        <path class="cls-1" d="M138.62,73.75c.46,1.09.95,2.16,1.36,3.27.58,1.57-.2,3.32-1.72,4-1.5.67-3.48-.02-4.16-1.55-.97-2.19-1.9-4.4-2.78-6.63-.61-1.55.22-3.32,1.74-3.99,1.58-.69,3.4-.04,4.14,1.54.52,1.1.95,2.24,1.42,3.36Z"/>
        <path class="cls-1" d="M127.03,46.01c1.09.45,2.21.86,3.28,1.35,1.59.74,2.22,2.49,1.52,4.13-.66,1.56-2.38,2.37-3.96,1.76-2.21-.85-4.4-1.75-6.57-2.68-1.59-.69-2.25-2.5-1.58-4.12.66-1.59,2.32-2.38,3.93-1.81,1.15.41,2.26.91,3.38,1.37Z"/>
      </g>
      <g>
        <path class="cls-1" d="M1017.09,304.74c-9.69-45.14-53.78-75.48-99.37-68.26-18.52,2.93-34.61,10.87-48.17,23.86-1.05,1.01-1.79,2.12-2.21,3.52-3.52,11.6-7.07,23.19-10.6,34.78q-1.2,3.94-5.25,2.9c-3.49-.89-4.83-.12-5.75,3.3-2.19,8.17-4.38,16.33-6.58,24.5-10.01,37.15-20.02,74.29-30.02,111.44-1,3.7,1.09,5.73,4.83,4.75,4.57-1.2,9.13-2.39,13.69-3.62,40.06-10.81,80.11-21.64,120.17-32.45,6.18-1.67,6.47-2.02,4.79-8.12-.48-1.76-.11-2.38,1.63-2.9,12.15-3.62,24.27-7.37,36.4-11.05,1.31-.4,2.46-.94,3.43-1.96,16.51-17.29,24.77-37.93,25.1-58.69-.02-9.47-.75-15.76-2.09-22ZM862.83,302.06c3.31-10.47,6.48-20.99,9.61-31.52.51-1.73,1.05-1.98,2.68-1.13,26.46,13.65,42.78,34.97,48.71,64.19.9,4.44,1.26,8.93,1.51,13.69-1.19-.63-1.65-1.54-2.28-2.26-16.08-18.31-35.58-31.58-58.61-39.58-2.03-.7-2.25-1.42-1.63-3.38ZM989.18,300.73c10.56,8.39,11.67,24.08,2.51,34.06-1.7,1.85-1.99,3.57-1.53,5.94,1.45,7.59-.4,14.41-5.47,20.29-.46.54-1.1,1.95-1.85,1.07-.85-1-2.79-1.8-1.69-3.82,2.39-4.37,3.43-9.07,3.22-14.05-.12-2.77-.65-5.46-1.66-8.04-.37-.94-.36-1.54.49-2.34,10.5-9.85,8.06-26.64-4.79-33.08-1.05-.53-1.49-1.17-1.81-2.32-2.9-10.53-9.64-17.33-20.16-20.27-1.3-.36-2-.91-2.59-2.09-6.28-12.53-23.34-14.96-32.84-4.67-.84.91-1.46.97-2.51.59-7.51-2.74-14.82-2.14-21.91,1.47-.99.5-3.86-.66-4.17-1.69-.18-.62.34-.88.68-1.2,5.01-4.67,11.02-7.18,17.76-6.33,4.5.57,7.74-.15,11.48-3,10.03-7.65,24.39-5.3,32.08,4.78,1.75,2.3,3.51,3.14,6.38,3,12.41-.61,22.18,7.1,24.66,19.23.32,1.58.32,3.22.48,4.95-1.1,3.38.58,5.41,3.25,7.53ZM961.92,318.76c-1.17-.21-1.6-.52-1.79-1.76-1.77-11.46-10.72-20.54-22.13-22.38-1.52-.24-1.86-.77-2.12-2.17-1.15-6.08-4-11.29-8.75-15.32-1.24-1.06-.91-1.52.13-2.31,2.56-1.96,5.38-3.04,8.18-2.96,6.24.04,11.08,3.43,12.96,9,.75,2.21,2,3.22,4.37,3.57,9.53,1.4,16.19,8.04,17.51,17.48.35,2.49,1.48,3.66,3.74,4.44,8.72,3.04,11.66,13.81,5.91,21.08-.94,1.19-1.39,1.24-2.44.03-4.12-4.76-9.38-7.62-15.56-8.72ZM975.69,353.54c-4.42-4.62-9-8.8-14.05-12.42-1.6-1.15-3.23-2.28-4.89-3.33-.86-.55-1.17-.95-.5-1.96,1.79-2.73,3.05-5.72,3.6-8.95.21-1.22.79-1.3,1.9-1.09,12.04,2.27,19.19,16.17,13.94,27.76ZM922.63,304.14c6.76-3.97,13.72-4.24,20.56-.51,6.9,3.76,10.2,9.89,10.4,17.7.05,3.94-1.07,7.52-3.1,10.86-.6,1-1.06,1.37-2.29.72-5.63-2.97-11.57-5.19-17.69-6.91-1-.28-1.52-.68-1.81-1.73-1.71-6.2-3.95-12.2-6.97-17.89-.7-1.32,0-1.71.89-2.23ZM918.65,298.58c-.7.46-1.11.37-1.53-.31-4.38-7.07-9.81-13.26-15.7-19.09-.04-.04-.03-.14-.04-.21,10.3-4.98,24.92.83,27.74,14.51.19.92-.25,1.12-.93,1.25-3.43.66-6.63,1.93-9.55,3.85ZM944.18,403.36c-10.2,2.78-20.42,5.49-30.62,8.24-31.17,8.41-62.33,16.83-93.5,25.22-.84.23-1.91,1.03-2.56.38-.65-.65.16-1.71.39-2.55,11.09-41.24,22.22-82.47,33.27-123.72.5-1.88,1.13-2.24,2.99-1.67,46.52,14.33,76.93,44.73,91.23,91.26.17.54.3,1.08.43,1.55.09,1.33-1.03,1.12-1.64,1.29ZM984.19,382.25c-10.8,3.21-21.58,6.5-32.34,9.86-1.48.46-1.88.05-2.33-1.27-4-11.75-9.54-22.73-16.56-32.97-.6-.87-.84-1.71-.81-2.75.2-6.78.09-13.55-1.13-20.26-.22-1.2-.09-1.34.65-1.33.54.16,1.08.31,1.61.5,23.38,8.27,40.7,23.45,52,45.53.8,1.57.7,2.17-1.09,2.7ZM993.64,375.65c-1.64,2-1.62,1.99-2.86-.35-1.16-2.18-3.21-4.28-3.34-6.5-.12-2.14,2.85-3.47,4.19-5.41,4.63-6.74,6.72-14.08,5.54-22.23-.19-1.28.1-2.25.91-3.29,10.31-13.16,8.51-31.2-4.19-42.23-.82-.71-1.17-1.4-1.16-2.51.02-17.76-13.39-31.11-31.28-31.16-1.04,0-1.67-.35-2.32-1.1-11.21-12.83-29.05-14.6-42.39-4.2-.97.76-1.88,1.03-3.09.87-10.21-1.36-18.95,1.72-26.19,8.99-1.02,1.03-1.64,1.05-2.78.32-1.84-1.18-3.75-2.28-5.74-3.16-1.65-.73-1.66-1.19-.3-2.32,8.2-6.79,17.34-11.81,27.45-15.14,45.86-15.07,95.95,14.55,104.71,61.91,1.1,5.93,1.6,11.89,1.58,16.35-.77,20.15-6.92,36.71-18.72,51.14Z"/>
        <path class="cls-1" d="M897.16,354.11c0-1.19-.1-2.4.02-3.58.21-1.98,1.73-3.37,3.51-3.24,1.94.14,3.18,1.27,3.3,3.2.15,2.38.16,4.78,0,7.16-.13,1.99-1.72,3.33-3.48,3.27-1.76-.06-3.18-1.45-3.36-3.45-.1-1.12-.02-2.25-.02-3.37,0,0,0,0,.01,0Z"/>
        <path class="cls-1" d="M861.26,335.96c-1.12,0-2.25.06-3.37-.02-2.04-.15-3.37-1.47-3.45-3.3-.08-1.85,1.13-3.36,3.18-3.49,2.45-.16,4.92-.15,7.36.03,1.88.14,3.13,1.71,3.08,3.4-.05,1.67-1.41,3.09-3.22,3.36-.14.02-.28.03-.42.03-1.05,0-2.11,0-3.16,0Z"/>
        <path class="cls-1" d="M918.76,393.21c0-1.13-.1-2.27.02-3.39.21-1.83,1.72-3.18,3.4-3.19,1.71-.01,3.24,1.27,3.35,3.18.15,2.46.14,4.95,0,7.41-.11,1.88-1.37,2.9-3.22,3.03-1.76.12-3.27-1.13-3.5-3.01-.16-1.32-.03-2.68-.03-4.02,0,0,0,0-.01,0Z"/>
        <path class="cls-1" d="M873.57,357.09c.08,2.24-6.19,8.36-8.45,8.26-1.32-.06-2.24-.69-2.85-1.84-.66-1.26-.57-2.53.36-3.54,1.76-1.91,3.6-3.75,5.52-5.5,1.01-.92,2.32-.86,3.56-.26,1.19.58,1.66,1.65,1.86,2.88Z"/>
        <path class="cls-1" d="M900.86,384.54c.02,2.11-5.92,8.24-8.06,8.26-1.28.01-2.33-.54-2.99-1.68-.64-1.12-.8-2.39-.02-3.4,1.77-2.29,3.76-4.46,6.14-6.09,2.11-1.46,4.91.32,4.93,2.91Z"/>
        <path class="cls-1" d="M869.08,382.01c0-1.13-.08-2.27.02-3.39.17-1.99,1.61-3.24,3.53-3.19,1.83.05,3.15,1.27,3.23,3.22.1,2.33.1,4.66,0,6.99-.08,2.01-1.54,3.37-3.37,3.36-1.79-.01-3.27-1.43-3.4-3.4-.08-1.2-.02-2.4-.02-3.6,0,0,0,0,0,0Z"/>
        <path class="cls-1" d="M847.8,382.96c0,1.13.05,2.26,0,3.39-.1,1.96-1.55,3.34-3.4,3.33-1.77-.02-3.26-1.35-3.32-3.18-.09-2.4-.08-4.81,0-7.21.06-1.83,1.55-3.2,3.28-3.25,1.8-.05,3.34,1.4,3.44,3.31.06,1.2.01,2.4.01,3.6Z"/>
        <path class="cls-1" d="M847.08,411.06c0,1.2.1,2.41-.02,3.6-.2,1.9-1.66,3.25-3.37,3.14-1.84-.12-3.18-1.17-3.33-2.98-.21-2.53-.19-5.09-.02-7.62.13-1.89,1.7-3.09,3.5-2.98,1.88.12,3.03,1.15,3.21,3.03.12,1.26.02,2.54.02,3.81Z"/>
        <path class="cls-1" d="M871.98,413.65c-1.27,0-2.55.07-3.81-.02-1.82-.12-3.15-1.59-3.16-3.35,0-1.76,1.33-3.29,3.14-3.36,2.47-.09,4.95-.12,7.41.02,1.9.1,2.87,1.43,3.06,3.22.18,1.68-1.29,3.31-3.04,3.46-1.19.1-2.4.02-3.6.02,0,0,0,0,0,0Z"/>
      </g>
      <g>
        <path class="cls-1" d="M1230.91,363.09c-45.88,5.1-80.5,45.93-77.9,92.01,1.06,18.72,7.33,35.52,18.9,50.33.9,1.15,1.93,1.99,3.28,2.55,11.19,4.66,22.36,9.36,33.54,14.04q3.8,1.59,2.36,5.51c-1.24,3.38-.61,4.79,2.71,6.05,7.9,3,15.81,6,23.71,9.01,35.95,13.69,71.91,27.38,107.86,41.06,3.58,1.36,5.81-.5,5.21-4.33-.73-4.66-1.46-9.33-2.23-13.98-6.73-40.94-13.48-81.88-20.21-122.82-1.04-6.32-1.36-6.64-7.6-5.58-1.8.3-2.38-.13-2.72-1.92-2.38-12.45-4.89-24.88-7.33-37.33-.26-1.35-.69-2.54-1.6-3.61-15.55-18.16-35.25-28.45-55.87-30.87-9.43-.93-15.76-.83-22.1-.13ZM1212.73,516.31c-10.09-4.35-20.23-8.56-30.4-12.73-1.67-.69-1.86-1.25-.86-2.78,16.24-24.95,39.09-39.05,68.76-42.02,4.51-.45,9.01-.36,13.77-.13-.74,1.12-1.7,1.48-2.48,2.04-19.84,14.16-35,32.23-45.27,54.34-.9,1.94-1.63,2.1-3.53,1.28ZM1224.11,390.46c9.41-9.66,25.13-9.19,34.14.92,1.67,1.88,3.35,2.34,5.75,2.12,7.7-.68,14.3,1.85,19.63,7.48.49.51,1.83,1.29.88,1.95-1.08.75-2.07,2.59-3.97,1.29-4.11-2.82-8.68-4.33-13.66-4.62-2.77-.16-5.5.1-8.17.84-.97.27-1.57.21-2.28-.72-8.75-11.44-25.7-10.7-33.39,1.45-.63.99-1.32,1.37-2.49,1.57-10.77,1.82-18.22,7.85-22.19,18.03-.49,1.26-1.11,1.9-2.34,2.36-13.1,4.98-17.23,21.71-7.94,32.21.82.93.82,1.55.33,2.56-3.48,7.2-3.62,14.53-.74,21.95.4,1.03-1.05,3.78-2.1,3.98-.63.12-.84-.43-1.12-.8-4.14-5.45-6.04-11.68-4.51-18.31,1.02-4.42.63-7.72-1.83-11.72-6.6-10.75-2.82-24.8,7.98-31.44,2.46-1.51,3.47-3.17,3.62-6.04.64-12.41,9.29-21.36,21.61-22.6,1.6-.16,3.24,0,4.97.02,3.25,1.43,5.44-.04,7.82-2.48ZM1239.31,419.4c-.33,1.15-.68,1.54-1.93,1.61-11.58.61-21.51,8.6-24.49,19.77-.4,1.48-.95,1.77-2.37,1.89-6.17.53-11.63,2.85-16.12,7.16-1.18,1.13-1.6.75-2.29-.36-1.69-2.74-2.48-5.66-2.12-8.44.66-6.21,4.52-10.67,10.25-11.99,2.27-.52,3.4-1.67,3.99-3.99,2.36-9.34,9.62-15.3,19.15-15.67,2.51-.1,3.79-1.11,4.8-3.28,3.9-8.37,14.91-10.22,21.57-3.76,1.09,1.06,1.09,1.51-.22,2.43-5.15,3.62-8.53,8.57-10.24,14.61ZM1275.3,409.18c-5.04,3.94-9.66,8.07-13.77,12.73-1.31,1.48-2.59,2.98-3.8,4.53-.63.81-1.06,1.06-2,.3-2.54-2.05-5.38-3.61-8.55-4.48-1.2-.33-1.22-.92-.9-2,3.47-11.75,18.02-17.47,29.02-11.08ZM1220.82,457.01c-3.27-7.13-2.84-14.08,1.55-20.51,4.43-6.48,10.86-9.15,18.65-8.57,3.93.35,7.37,1.82,10.49,4.17.93.7,1.26,1.2.49,2.35-3.53,5.3-6.33,10.99-8.65,16.91-.38.97-.83,1.44-1.9,1.62-6.34,1.08-12.54,2.71-18.5,5.14-1.39.56-1.7-.17-2.13-1.11ZM1214.88,460.41c.39.75.26,1.14-.46,1.49-7.47,3.64-14.18,8.43-20.57,13.7-.04.04-.14.01-.21.02-3.92-10.75,3.33-24.71,17.22-26.15.93-.1,1.09.36,1.15,1.05.31,3.48,1.25,6.79,2.87,9.89ZM1321.7,445.54c1.74,10.43,3.41,20.86,5.13,31.29,5.23,31.85,10.48,63.7,15.69,95.56.14.86.84,2,.13,2.58-.71.58-1.68-.33-2.5-.64-39.92-15.18-79.82-30.39-119.75-45.54-1.82-.69-2.12-1.35-1.36-3.14,18.93-44.85,52.24-72.05,99.96-81.6.55-.11,1.11-.19,1.58-.27,1.33.05,1.01,1.14,1.12,1.76ZM1304.72,403.62c2.11,11.07,4.3,22.12,6.56,33.16.31,1.52-.13,1.88-1.5,2.19-12.09,2.8-23.58,7.21-34.47,13.16-.92.5-1.79.66-2.82.53-6.73-.89-13.48-1.45-20.27-.91-1.21.1-1.34-.04-1.26-.78.22-.52.42-1.05.66-1.56,10.58-22.43,27.42-38.14,50.53-47.16,1.65-.64,2.23-.48,2.58,1.36ZM1299.1,393.55c1.83,1.83,1.81,1.81-.63,2.81-2.29.93-4.58,2.77-6.8,2.67-2.14-.1-3.16-3.19-4.96-4.71-6.24-5.28-13.33-8.1-21.56-7.74-1.29.06-2.23-.33-3.18-1.24-12.05-11.58-30.19-11.6-42.44-.07-.79.74-1.51,1.02-2.61.91-17.66-1.8-32.3,10.2-34.14,27.99-.11,1.03-.52,1.62-1.33,2.2-13.89,9.87-17.44,27.44-8.43,41.75.66,1.04.84,1.97.56,3.16-2.38,10.03-.2,19.03,6.31,26.96.92,1.12.88,1.74.03,2.8-1.36,1.71-2.64,3.5-3.72,5.4-.89,1.57-1.35,1.53-2.34.07-5.93-8.84-10.01-18.44-12.3-28.83-10.39-47.15,24.12-94,72.12-97.96,6.01-.5,11.99-.4,16.43.07,19.97,2.8,35.83,10.57,49,23.77Z"/>
        <path class="cls-1" d="M1267.98,487.38c-1.19-.12-2.4-.14-3.56-.38-1.94-.41-3.18-2.06-2.87-3.82.34-1.92,1.59-3.04,3.52-2.96,2.38.09,4.77.32,7.12.72,1.97.33,3.14,2.05,2.91,3.79-.23,1.75-1.76,3.02-3.77,2.99-1.12-.01-2.24-.21-3.36-.32,0,0,0,0,0-.01Z"/>
        <path class="cls-1" d="M1246.31,521.28c-.12,1.12-.16,2.25-.36,3.35-.35,2.01-1.8,3.21-3.63,3.1-1.85-.11-3.23-1.47-3.16-3.52.09-2.45.35-4.91.77-7.32.32-1.86,2.01-2.94,3.69-2.73,1.66.22,2.93,1.71,3.02,3.54,0,.14,0,.28-.02.42-.1,1.05-.21,2.1-.32,3.15Z"/>
        <path class="cls-1" d="M1309.05,469.82c-1.12-.11-2.27-.13-3.37-.36-1.8-.39-2.99-2.03-2.84-3.7.16-1.7,1.59-3.1,3.5-3.02,2.46.1,4.93.36,7.37.75,1.86.3,2.75,1.65,2.69,3.51-.05,1.76-1.46,3.14-3.35,3.18-1.33.02-2.67-.24-4-.37,0,0,0,0,0,.01Z"/>
        <path class="cls-1" d="M1268.57,511.15c2.24.14,7.69,7,7.37,9.23-.19,1.3-.91,2.16-2.12,2.65-1.32.53-2.58.31-3.48-.71-1.72-1.94-3.37-3.96-4.91-6.04-.81-1.1-.62-2.4.1-3.56.7-1.13,1.81-1.49,3.05-1.56Z"/>
        <path class="cls-1" d="M1298.62,486.76c2.1.19,7.6,6.72,7.41,8.85-.12,1.28-.77,2.27-1.97,2.8-1.18.53-2.46.56-3.39-.32-2.1-1.99-4.05-4.19-5.45-6.72-1.24-2.25.81-4.85,3.39-4.61Z"/>
        <path class="cls-1" d="M1292.92,518.12c-1.12-.11-2.26-.15-3.37-.36-1.96-.37-3.06-1.93-2.82-3.83.23-1.81,1.58-3,3.53-2.89,2.33.14,4.65.37,6.96.7,1.99.28,3.2,1.87,3.01,3.69-.19,1.78-1.76,3.11-3.72,3.05-1.2-.04-2.39-.23-3.59-.35,0,0,0,0,0,0Z"/>
        <path class="cls-1" d="M1291.72,539.38c1.12.11,2.26.18,3.37.35,1.94.3,3.17,1.87,2.97,3.72-.19,1.76-1.67,3.11-3.5,2.99-2.4-.15-4.79-.4-7.17-.72-1.81-.24-3.03-1.86-2.9-3.59.13-1.79,1.72-3.18,3.64-3.09,1.2.06,2.39.23,3.59.35Z"/>
        <path class="cls-1" d="M1319.61,542.93c1.19.12,2.41.14,3.58.38,1.87.39,3.07,1.97,2.79,3.67-.3,1.82-1.48,3.04-3.3,3.01-2.53-.04-5.08-.32-7.58-.75-1.86-.32-2.9-2-2.61-3.78.3-1.86,1.45-2.9,3.34-2.89,1.26,0,2.53.23,3.79.36Z"/>
        <path class="cls-1" d="M1324.68,518.41c-.13,1.27-.19,2.54-.4,3.79-.3,1.8-1.9,2.98-3.65,2.8-1.75-.17-3.14-1.65-3.02-3.46.16-2.47.38-4.94.76-7.38.29-1.88,1.71-2.71,3.51-2.72,1.69,0,3.17,1.61,3.14,3.38-.02,1.2-.22,2.39-.34,3.58,0,0,0,0,0,0Z"/>
      </g>
      <g>
        <path class="cls-1" d="M1186.55,178.28c18.28,42.39,67.43,63.58,110.75,47.63,17.6-6.48,31.83-17.39,42.61-32.77.84-1.2,1.34-2.43,1.48-3.89,1.19-12.06,2.42-24.12,3.64-36.18q.41-4.1,4.58-3.87c3.59.2,4.76-.82,5-4.36.56-8.44,1.12-16.87,1.69-25.31,2.59-38.38,5.19-76.77,7.77-115.15.26-3.82-2.18-5.41-5.66-3.72-4.25,2.06-8.49,4.12-12.72,6.22-37.19,18.4-74.37,36.8-111.56,55.2-5.74,2.84-5.95,3.24-3.12,8.9.82,1.63.57,2.32-1.04,3.16-11.21,5.92-22.37,11.95-33.56,17.91-1.21.65-2.23,1.4-2.98,2.59-12.83,20.17-16.92,42.02-13.21,62.46,1.87,9.29,3.81,15.31,6.33,21.17ZM1338.4,150.92c-1.21,10.92-2.28,21.85-3.3,32.79-.17,1.8-.65,2.14-2.41,1.63-28.61-8.25-48.76-25.99-60.26-53.49-1.75-4.18-2.97-8.51-4.15-13.13,1.29.38,1.91,1.19,2.68,1.78,19.34,14.84,41.04,24.06,65.19,27.43,2.12.3,2.49.95,2.26,3ZM1214.71,176.79c-11.99-6.18-16.13-21.35-9.09-32.92,1.31-2.15,1.26-3.89.35-6.12-2.9-7.17-2.41-14.22,1.42-20.96.35-.62.7-2.12,1.6-1.41,1.03.81,3.09,1.22,2.4,3.42-1.49,4.76-1.61,9.57-.43,14.41.66,2.7,1.7,5.23,3.19,7.57.54.85.66,1.44-.03,2.4-8.39,11.71-2.73,27.7,11.13,31.51,1.13.31,1.69.86,2.23,1.92,4.89,9.76,12.83,15.13,23.72,15.96,1.35.1,2.14.51,2.94,1.55,8.59,11.07,25.8,10.14,33.12-1.81.65-1.06,1.24-1.24,2.35-1.06,7.9,1.22,14.95-.78,21.21-5.7.87-.69,3.92-.1,4.42.85.3.57-.16.93-.43,1.31-4.01,5.55-9.41,9.19-16.19,9.66-4.53.32-7.56,1.65-10.68,5.17-8.35,9.45-22.9,9.94-32.4,1.55-2.16-1.91-4.05-2.39-6.84-1.7-12.05,3.01-23.14-2.65-27.93-14.07-.62-1.49-.94-3.1-1.43-4.76.42-3.53-1.62-5.19-4.65-6.75ZM1237.95,153.8c1.19-.02,1.67.2,2.1,1.38,3.96,10.89,14.51,18.06,26.06,17.65,1.54-.06,1.97.39,2.5,1.71,2.31,5.74,6.12,10.29,11.56,13.32,1.43.79,1.19,1.31.33,2.29-2.13,2.42-4.69,4.03-7.45,4.49-6.13,1.18-11.53-1.21-14.46-6.31-1.16-2.02-2.59-2.77-4.98-2.65-9.63.48-17.44-4.74-20.58-13.74-.83-2.38-2.16-3.3-4.53-3.63-9.14-1.28-14.13-11.28-9.89-19.53.69-1.35,1.12-1.48,2.39-.5,4.96,3.87,10.69,5.65,16.96,5.53ZM1217.67,122.36c5.24,3.67,10.54,6.88,16.19,9.45,1.8.82,3.61,1.6,5.45,2.31.95.37,1.33.7.87,1.82-1.22,3.03-1.88,6.2-1.79,9.48.03,1.24-.52,1.43-1.65,1.44-12.25.12-21.97-12.13-19.07-24.52ZM1279.33,160.49c-5.86,5.21-12.63,6.83-20.07,4.5-7.5-2.35-11.93-7.72-13.65-15.34-.81-3.86-.41-7.58.92-11.25.4-1.09.78-1.55,2.11-1.15,6.1,1.82,12.36,2.85,18.7,3.33,1.04.08,1.62.37,2.11,1.35,2.88,5.75,6.25,11.2,10.31,16.2.94,1.16.34,1.68-.44,2.36ZM1284.31,165.18c.6-.59,1.01-.58,1.56,0,5.67,6.08,12.21,11.1,19.11,15.67.05.03.05.13.08.19-9.14,6.89-24.61,4.03-30.04-8.84-.36-.86.02-1.15.67-1.41,3.24-1.32,6.13-3.18,8.62-5.63ZM1238.9,67.36c9.46-4.71,18.96-9.36,28.43-14.04,28.94-14.31,57.87-28.63,86.81-42.91.78-.39,1.67-1.38,2.43-.87.77.51.18,1.7.12,2.58-2.86,42.61-5.76,85.22-8.58,127.83-.13,1.94-.67,2.42-2.61,2.22-48.42-5.01-84.16-28.92-107.24-71.78-.27-.5-.51-1-.72-1.43-.34-1.29.79-1.3,1.35-1.58ZM1203.76,95.85c9.97-5.25,19.9-10.57,29.8-15.96,1.36-.74,1.83-.42,2.54.8,6.21,10.75,13.78,20.45,22.65,29.12.75.74,1.16,1.51,1.33,2.54,1.12,6.7,2.55,13.31,5.05,19.66.45,1.13.35,1.29-.38,1.43-.56-.06-1.12-.09-1.68-.18-24.54-3.57-44.48-15.08-59.86-34.55-1.1-1.39-1.11-1.99.55-2.86ZM1195.77,104.16c1.22-2.29,1.2-2.26,2.87-.21,1.56,1.91,3.99,3.57,4.54,5.73.53,2.08-2.12,3.95-3.06,6.12-3.23,7.51-3.85,15.11-1.11,22.88.43,1.22.34,2.23-.26,3.4-7.55,14.91-2.28,32.26,12.32,40.61.94.54,1.42,1.14,1.63,2.23,3.44,17.42,19.18,27.91,36.74,24.48,1.02-.2,1.7.02,2.49.63,13.49,10.4,31.34,8.67,42.39-4.13.81-.93,1.64-1.38,2.86-1.46,10.28-.65,18.26-5.37,23.94-13.91.8-1.2,1.41-1.35,2.67-.85,2.03.8,4.12,1.5,6.25,1.98,1.76.4,1.86.85.75,2.21-6.72,8.25-14.71,14.96-23.98,20.18-42.06,23.7-96.94,4.38-114.75-40.37-2.23-5.6-3.88-11.35-4.73-15.73-3.16-19.92-.35-37.36,8.42-53.8Z"/>
        <path class="cls-1" d="M1294.6,106.53c.23,1.17.57,2.33.67,3.52.18,1.98-1.04,3.64-2.81,3.86-1.93.24-3.37-.63-3.86-2.5-.61-2.3-1.08-4.66-1.39-7.02-.26-1.98,1.04-3.6,2.77-3.89,1.74-.29,3.4.81,3.96,2.73.31,1.08.45,2.2.67,3.3,0,0,0,0-.01,0Z"/>
        <path class="cls-1" d="M1333.34,117.35c1.1-.22,2.2-.5,3.31-.64,2.03-.25,3.59.78,4.02,2.57.44,1.8-.46,3.52-2.44,4.05-2.37.63-4.8,1.1-7.23,1.4-1.87.23-3.4-1.07-3.68-2.74-.28-1.65.78-3.31,2.51-3.92.13-.05.27-.08.41-.11,1.03-.21,2.07-.41,3.1-.61Z"/>
        <path class="cls-1" d="M1265.81,72.38c.22,1.11.54,2.21.64,3.33.15,1.84-1.07,3.46-2.71,3.79-1.68.34-3.43-.62-3.91-2.46-.62-2.39-1.09-4.82-1.43-7.27-.26-1.87.78-3.11,2.57-3.6,1.7-.46,3.43.48,4.02,2.27.41,1.27.55,2.62.81,3.94,0,0,0,0,.01,0Z"/>
        <path class="cls-1" d="M1317.16,99.02c-.51-2.18,4.44-9.4,6.68-9.74,1.3-.2,2.34.24,3.15,1.25.89,1.11,1.05,2.37.34,3.54-1.36,2.21-2.8,4.38-4.34,6.46-.82,1.1-2.11,1.3-3.44.95-1.28-.34-1.95-1.29-2.39-2.46Z"/>
        <path class="cls-1" d="M1285.05,77.4c-.43-2.06,4.21-9.23,6.3-9.67,1.25-.26,2.39.08,3.26,1.07.85.97,1.25,2.19.68,3.33-1.29,2.59-2.82,5.1-4.84,7.17-1.79,1.84-4.88.64-5.4-1.9Z"/>
        <path class="cls-1" d="M1316.72,73.7c.22,1.11.52,2.21.64,3.33.22,1.99-.95,3.49-2.84,3.82-1.8.31-3.33-.63-3.79-2.54-.55-2.26-1-4.56-1.36-6.86-.31-1.99.85-3.61,2.65-3.95,1.76-.34,3.48.77,4,2.67.31,1.16.48,2.35.72,3.53,0,0,0,0,0,0Z"/>
        <path class="cls-1" d="M1337.4,68.63c-.22-1.11-.49-2.21-.65-3.33-.28-1.94.87-3.58,2.69-3.92,1.74-.33,3.46.69,3.88,2.47.55,2.34,1.02,4.7,1.4,7.07.29,1.8-.89,3.44-2.59,3.83-1.75.4-3.54-.72-4.02-2.58-.3-1.16-.48-2.35-.71-3.53Z"/>
        <path class="cls-1" d="M1332.64,40.93c-.23-1.18-.57-2.35-.68-3.53-.17-1.9.99-3.51,2.69-3.74,1.83-.24,3.34.53,3.85,2.28.7,2.44,1.18,4.96,1.5,7.47.24,1.88-1.07,3.36-2.85,3.6-1.86.25-3.2-.54-3.74-2.35-.36-1.21-.52-2.49-.76-3.73Z"/>
        <path class="cls-1" d="M1307.72,43.23c1.25-.25,2.49-.56,3.74-.73,1.81-.24,3.4.95,3.75,2.68.35,1.73-.66,3.49-2.43,3.9-2.4.57-4.83,1.08-7.28,1.43-1.89.27-3.09-.85-3.63-2.57-.5-1.62.62-3.5,2.31-3.99,1.15-.33,2.35-.49,3.53-.72,0,0,0,0,0,0Z"/>
      </g>
      <path class="cls-1" d="M855.71,105.56c-9.38-4.44-20.68-.85-24.5,9.22-.23.59-.56.79-1.17.71-2.08-.29-4.18-.47-6.25-.83-8.77-1.54-16.98-4.56-24.41-9.53-.97-.65-1.89-1.36-2.83-2.04,1.26-.23,2.39-.13,3.51-.23,6.26-.55,11.46-3.41,16.05-7.52,1.41-1.27,1.37-3.37-.08-4.53-1.55-1.26-3.12-2.53-4.81-3.58-4.84-2.99-10.04-4.62-15.81-3.68-5.16.84-9.59,3.24-13.53,6.57-.76.64-1.52,1.52-1.8,2.43-2.16,6.93-2.72,14.02-1.79,21.21,1.64,12.66,7.05,23.71,14.61,33.81.63.84,1.27,1.67,1.95,2.56-.41.26-.68.43-.95.59-2.03,1.15-3.78,2.66-5.1,4.56-4.63,6.66-4.54,13.57-.63,20.47,2.37,4.19,6.05,7.13,10.23,9.4,7.03,3.81,14.44,4.93,22.24,2.8,2.91-.79,5.5-2.24,7.96-3.93l4.12-4.12c2.06-2.94,3.61-6.1,4.37-9.63,1.05-4.95.74-9.82-.71-14.65-.11-.36-.21-.72-.36-1.24,1.06.29,1.95.56,2.84.78,7.35,1.74,14.37,1.07,20.91-2.93.6-.37,1.19-.77,1.78-1.16,1.37-1.37,2.75-2.75,4.12-4.12.1-.17.18-.34.29-.5,2.04-2.82,3.43-5.94,4.1-9.35,1.53-7.8.03-15.06-4.1-21.78-2.55-4.14-5.77-7.62-10.26-9.75ZM788.59,92.66c3.77-2.34,7.77-3.85,12.31-3.11,2.79.46,5.29,1.66,7.9,3.27-.1.24-.14.64-.35.77-4.26,2.67-8.8,4.21-13.82,2.67-2.05-.63-3.95-1.73-5.91-2.63-.49-.23-.78-.57-.14-.97ZM831.05,169.35c-1.71,7.49-7.73,12.64-15.38,13.44-7.19.75-13.43-1.49-18.88-6.17-2.78-2.39-4.67-5.26-5.2-8.92-.54-3.73.31-7.09,2.95-9.86,1.65-1.73,3.73-2.75,6.09-3.19,1.5-.28,2.44-1.15,2.72-2.66,1.42-7.59,8.88-11.14,15.97-8.32,1.8.71,3.39,1.96,4.41,2.56,6.43,7.01,9.32,14.39,7.32,23.11ZM818.74,137.05c-8.41-1.42-15,1.19-19.64,8.56-5.57-6.95-9.89-14.46-12.63-22.82-2.42-7.38-3.33-18.5-1.82-22.55,10.33,11.45,23.35,17.75,38.38,20.51-4.25,4.76-5.42,10.19-4.29,16.31ZM861.25,119.24c3.19,5.52,4.27,11.41,2.65,17.66-.86,3.34-2.6,6.17-6.07,9.3-4.81,3.97-11.29,4.74-18.26,2.87-4.18-1.12-7.79-3.33-10.87-6.32-4.52-4.38-5.72-11.15-2.55-16.14,1.66-2.61,4.06-4.24,7.09-4.83,1.83-.35,2.79-1.33,3.17-3.15,1.52-7.26,9.24-10.92,16.26-7.79,3.91,1.74,6.51,4.82,8.58,8.4Z"/>
      <path class="cls-1" d="M1151.43,26.63c-9.38-4.44-20.68-.85-24.5,9.22-.23.59-.56.79-1.17.71-2.08-.29-4.18-.47-6.25-.83-8.77-1.54-16.98-4.56-24.41-9.53-.97-.65-1.89-1.36-2.83-2.04,1.26-.23,2.39-.13,3.51-.23,6.26-.55,11.46-3.41,16.05-7.52,1.41-1.27,1.37-3.37-.08-4.53-1.55-1.26-3.12-2.53-4.81-3.58-4.84-2.99-10.04-4.62-15.81-3.68-5.16.84-9.59,3.24-13.53,6.57-.76.64-1.52,1.52-1.8,2.43-2.16,6.93-2.72,14.02-1.79,21.21,1.64,12.66,7.05,23.71,14.61,33.81.63.84,1.27,1.67,1.95,2.56-.41.26-.68.43-.95.59-2.03,1.15-3.78,2.66-5.1,4.56-4.63,6.66-4.54,13.57-.63,20.47,2.37,4.19,6.05,7.13,10.23,9.4,7.03,3.81,14.44,4.93,22.24,2.8,2.91-.79,5.5-2.24,7.96-3.93l4.12-4.12c2.06-2.94,3.61-6.1,4.37-9.63,1.05-4.95.74-9.82-.71-14.65-.11-.36-.21-.72-.36-1.24,1.06.29,1.95.56,2.84.78,7.35,1.74,14.37,1.07,20.91-2.93.6-.37,1.19-.77,1.78-1.16,1.37-1.37,2.75-2.75,4.12-4.12.1-.17.18-.34.29-.5,2.04-2.82,3.43-5.94,4.1-9.35,1.53-7.8.03-15.06-4.1-21.78-2.55-4.14-5.77-7.62-10.26-9.75ZM1084.31,13.73c3.77-2.34,7.77-3.85,12.31-3.11,2.79.46,5.29,1.66,7.9,3.27-.1.24-.14.64-.35.77-4.26,2.67-8.8,4.21-13.82,2.67-2.05-.63-3.95-1.73-5.91-2.63-.49-.23-.78-.57-.14-.97ZM1126.77,90.41c-1.71,7.49-7.73,12.64-15.38,13.44-7.19.75-13.43-1.49-18.88-6.17-2.78-2.39-4.67-5.26-5.2-8.92-.54-3.73.31-7.09,2.95-9.86,1.65-1.73,3.73-2.75,6.09-3.19,1.5-.28,2.44-1.15,2.72-2.66,1.42-7.59,8.88-11.14,15.97-8.32,1.8.71,3.39,1.96,4.41,2.56,6.43,7.01,9.32,14.39,7.32,23.11ZM1114.46,58.12c-8.41-1.42-15,1.19-19.64,8.56-5.57-6.95-9.89-14.46-12.63-22.82-2.42-7.38-3.33-18.5-1.82-22.55,10.33,11.45,23.35,17.75,38.38,20.51-4.25,4.76-5.42,10.19-4.29,16.31ZM1156.96,40.3c3.19,5.52,4.27,11.41,2.65,17.66-.86,3.34-2.6,6.17-6.07,9.3-4.81,3.97-11.29,4.74-18.26,2.87-4.18-1.12-7.79-3.33-10.87-6.32-4.52-4.38-5.72-11.15-2.55-16.14,1.66-2.61,4.06-4.24,7.09-4.83,1.83-.35,2.79-1.33,3.17-3.15,1.52-7.26,9.24-10.92,16.26-7.79,3.91,1.74,6.51,4.82,8.58,8.4Z"/>
      <path class="cls-1" d="M1144.19,258.1c-9.38-4.44-20.68-.85-24.5,9.22-.23.59-.56.79-1.17.71-2.08-.29-4.18-.47-6.25-.83-8.77-1.54-16.98-4.56-24.41-9.53-.97-.65-1.89-1.36-2.83-2.04,1.26-.23,2.39-.13,3.51-.23,6.26-.55,11.46-3.41,16.05-7.52,1.41-1.27,1.37-3.37-.08-4.53-1.55-1.26-3.12-2.53-4.81-3.58-4.84-2.99-10.04-4.62-15.81-3.68-5.16.84-9.59,3.24-13.53,6.57-.76.64-1.52,1.52-1.8,2.43-2.16,6.93-2.72,14.02-1.79,21.21,1.64,12.66,7.05,23.71,14.61,33.81.63.84,1.27,1.67,1.95,2.56-.41.26-.68.43-.95.59-2.03,1.15-3.78,2.66-5.1,4.56-4.63,6.66-4.54,13.57-.63,20.47,2.37,4.19,6.05,7.13,10.23,9.4,7.03,3.81,14.44,4.93,22.24,2.8,2.91-.79,5.5-2.24,7.96-3.93l4.12-4.12c2.06-2.94,3.61-6.1,4.37-9.63,1.05-4.95.74-9.82-.71-14.65-.11-.36-.21-.72-.36-1.24,1.06.29,1.95.56,2.84.78,7.35,1.74,14.37,1.07,20.91-2.93.6-.37,1.19-.77,1.78-1.16l4.12-4.12c.1-.17.18-.34.29-.5,2.04-2.82,3.43-5.94,4.1-9.35,1.53-7.8.03-15.06-4.1-21.78-2.55-4.14-5.77-7.62-10.26-9.75ZM1077.07,245.2c3.77-2.34,7.77-3.85,12.31-3.11,2.79.46,5.29,1.66,7.9,3.27-.1.24-.14.64-.35.77-4.26,2.67-8.8,4.21-13.82,2.67-2.05-.63-3.95-1.73-5.91-2.63-.49-.23-.78-.57-.14-.97ZM1119.53,321.89c-1.71,7.49-7.73,12.64-15.38,13.44-7.19.75-13.43-1.49-18.88-6.17-2.78-2.39-4.67-5.26-5.2-8.92-.54-3.73.31-7.09,2.95-9.86,1.65-1.73,3.73-2.75,6.09-3.19,1.5-.28,2.44-1.15,2.72-2.66,1.42-7.59,8.88-11.14,15.97-8.32,1.8.71,3.39,1.96,4.41,2.56,6.43,7.01,9.32,14.39,7.32,23.11ZM1107.22,289.59c-8.41-1.42-15,1.19-19.64,8.56-5.57-6.95-9.89-14.46-12.63-22.82-2.42-7.38-3.33-18.5-1.82-22.55,10.33,11.45,23.35,17.75,38.38,20.51-4.25,4.76-5.42,10.19-4.29,16.31ZM1149.72,271.78c3.19,5.52,4.27,11.41,2.65,17.66-.86,3.34-2.6,6.17-6.07,9.3-4.81,3.97-11.29,4.74-18.26,2.87-4.18-1.12-7.79-3.33-10.87-6.32-4.52-4.38-5.72-11.15-2.55-16.14,1.66-2.61,4.06-4.24,7.09-4.83,1.83-.35,2.79-1.33,3.17-3.15,1.52-7.26,9.24-10.92,16.26-7.79,3.91,1.74,6.51,4.82,8.58,8.4Z"/>
      <path class="cls-1" d="M1034.19,486.72c-9.38-4.44-20.68-.85-24.5,9.22-.23.59-.56.79-1.17.71-2.08-.29-4.18-.47-6.25-.83-8.77-1.54-16.98-4.56-24.41-9.53-.97-.65-1.89-1.36-2.83-2.04,1.26-.23,2.39-.13,3.51-.23,6.26-.55,11.46-3.41,16.05-7.52,1.41-1.27,1.37-3.37-.08-4.53-1.55-1.26-3.12-2.53-4.81-3.58-4.84-2.99-10.04-4.62-15.81-3.68-5.16.84-9.59,3.24-13.53,6.57-.76.64-1.52,1.52-1.8,2.43-2.16,6.93-2.72,14.02-1.79,21.21,1.64,12.66,7.05,23.71,14.61,33.81.63.84,1.27,1.67,1.95,2.56-.41.26-.68.43-.95.59-2.03,1.15-3.78,2.66-5.1,4.56-4.63,6.66-4.54,13.57-.63,20.47,2.37,4.19,6.05,7.13,10.23,9.4,7.03,3.81,14.44,4.93,22.24,2.8,2.91-.79,5.5-2.24,7.96-3.93l4.12-4.12c2.06-2.94,3.61-6.1,4.37-9.63,1.05-4.95.74-9.82-.71-14.65-.11-.36-.21-.72-.36-1.24,1.06.29,1.95.56,2.84.78,7.35,1.74,14.37,1.07,20.91-2.93.6-.37,1.19-.77,1.78-1.16l4.12-4.12c.1-.17.18-.34.29-.5,2.04-2.82,3.43-5.94,4.1-9.35,1.53-7.8.03-15.06-4.1-21.78-2.55-4.14-5.77-7.62-10.26-9.75ZM967.07,473.81c3.77-2.34,7.77-3.85,12.31-3.11,2.79.46,5.29,1.66,7.9,3.27-.1.24-.14.64-.35.77-4.26,2.67-8.8,4.21-13.82,2.67-2.05-.63-3.95-1.73-5.91-2.63-.49-.23-.78-.57-.14-.97ZM1009.53,550.5c-1.71,7.49-7.73,12.64-15.38,13.44-7.19.75-13.43-1.49-18.88-6.17-2.78-2.39-4.67-5.26-5.2-8.92-.54-3.73.31-7.09,2.95-9.86,1.65-1.73,3.73-2.75,6.09-3.19,1.5-.28,2.44-1.15,2.72-2.66,1.42-7.59,8.88-11.14,15.97-8.32,1.8.71,3.39,1.96,4.41,2.56,6.43,7.01,9.32,14.39,7.32,23.11ZM997.22,518.2c-8.41-1.42-15,1.19-19.64,8.56-5.57-6.95-9.89-14.46-12.63-22.82-2.42-7.38-3.33-18.5-1.82-22.55,10.33,11.45,23.35,17.75,38.38,20.51-4.25,4.76-5.42,10.19-4.29,16.31ZM1039.73,500.39c3.19,5.52,4.27,11.41,2.65,17.66-.86,3.34-2.6,6.17-6.07,9.3-4.81,3.97-11.29,4.74-18.26,2.87-4.18-1.12-7.79-3.33-10.87-6.32-4.52-4.38-5.72-11.15-2.55-16.14,1.66-2.61,4.06-4.24,7.09-4.83,1.83-.35,2.79-1.33,3.17-3.15,1.52-7.26,9.24-10.92,16.26-7.79,3.91,1.74,6.51,4.82,8.58,8.4Z"/>
      <g>
        <path class="cls-1" d="M1473.49,223.01c-4.84-7.78-12.12-12.28-21.15-13.88-.29-.05-.56-.16-.93-.26.48-.72.91-1.3,1.27-1.93,2.48-4.36,3.09-8.91,1.55-13.75-.97-3.05-2.56-3.9-5.48-2.67-4.75,1.99-9.5,3.97-14.24,5.99-.64.27-1.05.25-1.52-.32-1.59-1.94-3.66-3.18-6-3.99-2.56-.89-5.14-1.75-7.71-2.62-2.13-.72-3.59-.15-4.58,1.85-1.25,2.52-2.48,5.06-3.67,7.62-1.02,2.18-1.54,4.47-1.27,6.89.08.71-.19,1.05-.84,1.32-4.92,2.03-9.83,4.1-14.73,6.17-2.1.89-2.86,2.69-1.88,4.76,2.49,5.25,6.57,8.51,12.34,9.54.4.07.79.14,1.31.23-.24.39-.38.66-.55.91-4.43,6.41-6.3,13.5-5.52,21.24.64,6.36,3.12,12.09,6.55,17.39,4.4,6.79,10.46,11.61,18.2,14.07,6.56,2.09,13.21,3.88,19.83,5.79,3.76,1.08,7.48,2.52,11.53,1.61l3.85-1.61c2.21-1.6,3.85-3.65,5.12-6.07,2.17-4.12,4.46-8.18,6.67-12.29,1.89-3.52,4-6.96,5.54-10.64,5.21-12.4,3.2-24.23-3.7-35.32ZM1433.01,205.28c.96-1,2.17-1.88,3.43-2.45,3.7-1.69,7.47-3.19,11.22-4.77.22-.09.46-.13.83-.24.02.47.1.87.06,1.26-.44,3.93-2.35,6.87-6,8.49-3.71,1.65-7.49,3.17-11.24,4.74-.24.1-.51.16-.88.27-.15-2.88.68-5.33,2.58-7.31ZM1416.18,204.76c.07-.55.05-1.14.25-1.64.93-2.2,1.93-4.37,2.97-6.69,2.3.82,4.39,1.56,6.48,2.32.38.14.74.39,1.08.63,1.45,1.04,1.34,1.08.37,2.58-1.03,1.59-1.79,3.35-2.66,5.04-.15.3-.22.63-.27.76-1.24-.42-2.4-.88-3.6-1.2-1.2-.32-2.44-.57-3.67-.7-.78-.08-1.05-.38-.95-1.1ZM1400.75,218.91c-.23-.19-.43-.43-.81-.83.72-.3,1.25-.53,1.79-.75,3.69-1.53,7.36-3.11,11.07-4.58,3.17-1.26,7.81-.08,10.09,2.44.11.12.18.28.3.46-.26.14-.46.27-.68.36-3.78,1.59-7.53,3.25-11.35,4.73-3.78,1.46-7.3.77-10.42-1.83ZM1472.24,235.95c1.51,4.81,1.69,9.69.67,14.62-.82,3.97-2.7,7.5-4.63,11.02-3.13,5.7-6.24,11.41-9.34,17.13-1.94,3.57-4.53,4.68-8.42,3.58-7.36-2.09-14.72-4.18-22.07-6.29-7.98-2.3-14-7.11-17.98-14.38-2.07-3.79-3.69-7.79-4.07-12.17-.83-9.43,2.72-16.96,10.02-22.82,2.1-1.69,4.49-2.88,6.99-3.87,2.04-.81,4.04-1.69,6.07-2.54h0c2.57-1.07,5.12-2.16,7.7-3.22,10.53-4.32,23-.97,29.89,8.09,2.47,3.25,3.96,7,5.17,10.86Z"/>
        <path class="cls-1" d="M1438.74,260.06c.42.99.85,1.98,1.25,2.98.67,1.71.04,3.47-1.5,4.29-1.42.76-3.4.27-4.21-1.35-1.13-2.26-2.1-4.61-2.91-7-.56-1.66.46-3.3,2.02-3.83,1.59-.54,3.33.23,4.06,1.84.46,1.01.87,2.05,1.3,3.07Z"/>
        <path class="cls-1" d="M1418.24,254.08c-.4-.96-.83-1.91-1.2-2.88-.73-1.9-.01-3.71,1.72-4.42,1.69-.7,3.49.04,4.29,1.85.88,1.97,1.71,3.95,2.5,5.95.72,1.83-.05,3.61-1.76,4.31-1.71.71-3.47-.03-4.29-1.84-.45-.98-.84-1.98-1.25-2.97Z"/>
        <path class="cls-1" d="M1453.19,268.58c.43,1.02.88,2.04,1.29,3.08.65,1.66-.02,3.4-1.56,4.15-1.55.75-3.42.22-4.18-1.38-1.07-2.25-2.03-4.56-2.89-6.9-.58-1.56.42-3.36,1.94-3.89,1.58-.54,3.34.17,4.03,1.69.49,1.07.92,2.17,1.38,3.26Z"/>
        <path class="cls-1" d="M1426.08,237.24c-.39,1-.76,2.01-1.18,3-.69,1.63-2.32,2.45-3.88,1.99-1.73-.51-2.81-2.09-2.25-3.86.77-2.44,1.72-4.83,2.83-7.14.77-1.61,2.51-1.98,4.11-1.23,1.48.7,2.16,2.31,1.66,3.94-.02.07-.04.13-.07.2-.4,1.03-.81,2.07-1.21,3.1Z"/>
        <path class="cls-1" d="M1442.81,243.85c.44,1.06.91,2.1,1.32,3.17.61,1.6-.09,3.29-1.62,4.01-1.62.76-3.41.26-4.16-1.35-1.04-2.22-2.01-4.5-2.85-6.8-.63-1.71.31-3.36,2.03-3.97,1.56-.56,3.25.19,3.95,1.78.47,1.05.89,2.11,1.33,3.17Z"/>
        <path class="cls-1" d="M1461.5,235.99c.44,1.24.97,2.45,1.3,3.72.42,1.64-.49,3.11-2.1,3.68-1.51.53-3.19-.06-3.88-1.55-1.02-2.2-1.96-4.45-2.81-6.72-.57-1.52.24-3.16,1.67-3.84,1.52-.72,3.15-.26,4.1,1.14.14.2.29.39.39.61.43.99.84,1.98,1.25,2.97.03,0,.05-.02.08-.03Z"/>
        <path class="cls-1" d="M1457.26,252.35c.46,1.09.95,2.16,1.36,3.27.58,1.57-.2,3.32-1.72,4-1.5.67-3.48-.02-4.16-1.55-.97-2.19-1.9-4.4-2.78-6.63-.61-1.55.22-3.32,1.74-3.99,1.58-.69,3.4-.04,4.14,1.54.52,1.1.95,2.24,1.42,3.36Z"/>
        <path class="cls-1" d="M1445.66,224.61c1.09.45,2.21.86,3.28,1.35,1.59.74,2.22,2.49,1.52,4.13-.66,1.56-2.38,2.37-3.96,1.76-2.21-.85-4.4-1.75-6.57-2.68-1.59-.69-2.25-2.5-1.58-4.12.66-1.59,2.32-2.38,3.93-1.81,1.15.41,2.26.91,3.38,1.37Z"/>
      </g>
      <g>
        <path class="cls-1" d="M1019.24,140.2c-4.84-7.78-12.12-12.28-21.15-13.88-.29-.05-.56-.16-.93-.26.48-.72.91-1.3,1.27-1.93,2.48-4.36,3.09-8.91,1.55-13.75-.97-3.05-2.56-3.9-5.48-2.67-4.75,1.99-9.5,3.97-14.24,5.99-.64.27-1.05.25-1.52-.32-1.59-1.94-3.66-3.18-6-3.99-2.56-.89-5.14-1.75-7.71-2.62-2.13-.72-3.59-.15-4.58,1.85-1.25,2.52-2.48,5.06-3.67,7.62-1.02,2.18-1.54,4.47-1.27,6.89.08.71-.19,1.05-.84,1.32-4.92,2.03-9.83,4.1-14.73,6.17-2.1.89-2.86,2.69-1.88,4.76,2.49,5.25,6.57,8.51,12.34,9.54.4.07.79.14,1.31.23-.24.39-.38.66-.55.91-4.43,6.41-6.3,13.5-5.52,21.24.64,6.36,3.12,12.09,6.55,17.39,4.4,6.79,10.46,11.61,18.2,14.07,6.56,2.09,13.21,3.88,19.83,5.79,3.76,1.08,7.48,2.52,11.53,1.61l3.85-1.61c2.21-1.6,3.85-3.65,5.12-6.07,2.17-4.12,4.46-8.18,6.67-12.29,1.89-3.52,4-6.96,5.54-10.64,5.21-12.4,3.2-24.23-3.7-35.32ZM978.76,122.47c.96-1,2.17-1.88,3.43-2.45,3.7-1.69,7.47-3.19,11.22-4.77.22-.09.46-.13.83-.24.02.47.1.87.06,1.26-.44,3.93-2.35,6.87-6,8.49-3.71,1.65-7.49,3.17-11.24,4.74-.24.1-.51.16-.88.27-.15-2.88.68-5.33,2.58-7.31ZM961.94,121.95c.07-.55.05-1.14.25-1.64.93-2.2,1.93-4.37,2.97-6.69,2.3.82,4.39,1.56,6.48,2.32.38.14.74.39,1.08.63,1.45,1.04,1.34,1.08.37,2.58-1.03,1.59-1.79,3.35-2.66,5.04-.15.3-.22.63-.27.76-1.24-.42-2.4-.88-3.6-1.2-1.2-.32-2.44-.57-3.67-.7-.78-.08-1.05-.38-.95-1.1ZM946.5,136.09c-.23-.19-.43-.43-.81-.83.72-.3,1.25-.53,1.79-.75,3.69-1.53,7.36-3.11,11.07-4.58,3.17-1.26,7.81-.08,10.09,2.44.11.12.18.28.3.46-.26.14-.46.27-.68.36-3.78,1.59-7.53,3.25-11.35,4.73-3.78,1.46-7.3.77-10.42-1.83ZM1017.99,153.14c1.51,4.81,1.69,9.69.67,14.62-.82,3.97-2.7,7.5-4.63,11.02-3.13,5.7-6.24,11.41-9.34,17.13-1.94,3.57-4.53,4.68-8.42,3.58-7.36-2.09-14.72-4.18-22.07-6.29-7.98-2.3-14-7.11-17.98-14.38-2.07-3.79-3.69-7.79-4.07-12.17-.83-9.43,2.72-16.96,10.02-22.82,2.1-1.69,4.49-2.88,6.99-3.87,2.04-.81,4.04-1.69,6.07-2.54h0c2.57-1.07,5.12-2.16,7.7-3.22,10.53-4.32,23-.97,29.89,8.09,2.47,3.25,3.96,7,5.17,10.86Z"/>
        <path class="cls-1" d="M984.49,177.24c.42.99.85,1.98,1.25,2.98.67,1.71.04,3.47-1.5,4.29-1.42.76-3.4.27-4.21-1.35-1.13-2.26-2.1-4.61-2.91-7-.56-1.66.46-3.3,2.02-3.83,1.59-.54,3.33.23,4.06,1.84.46,1.01.87,2.05,1.3,3.07Z"/>
        <path class="cls-1" d="M963.99,171.26c-.4-.96-.83-1.91-1.2-2.88-.73-1.9-.01-3.71,1.72-4.42,1.69-.7,3.49.04,4.29,1.85.88,1.97,1.71,3.95,2.5,5.95.72,1.83-.05,3.61-1.76,4.31-1.71.71-3.47-.03-4.29-1.84-.45-.98-.84-1.98-1.25-2.97Z"/>
        <path class="cls-1" d="M998.94,185.77c.43,1.02.88,2.04,1.29,3.08.65,1.66-.02,3.4-1.56,4.15-1.55.75-3.42.22-4.18-1.38-1.07-2.25-2.03-4.56-2.89-6.9-.58-1.56.42-3.36,1.94-3.89,1.58-.54,3.34.17,4.03,1.69.49,1.07.92,2.17,1.38,3.26Z"/>
        <path class="cls-1" d="M971.84,154.42c-.39,1-.76,2.01-1.18,3-.69,1.63-2.32,2.45-3.88,1.99-1.73-.51-2.81-2.09-2.25-3.86.77-2.44,1.72-4.83,2.83-7.14.77-1.61,2.51-1.98,4.11-1.23,1.48.7,2.16,2.31,1.66,3.94-.02.07-.04.13-.07.2-.4,1.03-.81,2.07-1.21,3.1Z"/>
        <path class="cls-1" d="M988.57,161.03c.44,1.06.91,2.1,1.32,3.17.61,1.6-.09,3.29-1.62,4.01-1.62.76-3.41.26-4.16-1.35-1.04-2.22-2.01-4.5-2.85-6.8-.63-1.71.31-3.36,2.03-3.97,1.56-.56,3.25.19,3.95,1.78.47,1.05.89,2.11,1.33,3.17Z"/>
        <path class="cls-1" d="M1007.26,153.17c.44,1.24.97,2.45,1.3,3.72.42,1.64-.49,3.11-2.1,3.68-1.51.53-3.19-.06-3.88-1.55-1.02-2.2-1.96-4.45-2.81-6.72-.57-1.52.24-3.16,1.67-3.84,1.52-.72,3.15-.26,4.1,1.14.14.2.29.39.39.61.43.99.84,1.98,1.25,2.97.03,0,.05-.02.08-.03Z"/>
        <path class="cls-1" d="M1003.01,169.54c.46,1.09.95,2.16,1.36,3.27.58,1.57-.2,3.32-1.72,4-1.5.67-3.48-.02-4.16-1.55-.97-2.19-1.9-4.4-2.78-6.63-.61-1.55.22-3.32,1.74-3.99,1.58-.69,3.4-.04,4.14,1.54.52,1.1.95,2.24,1.42,3.36Z"/>
        <path class="cls-1" d="M991.41,141.8c1.09.45,2.21.86,3.28,1.35,1.59.74,2.22,2.49,1.52,4.13-.66,1.56-2.38,2.37-3.96,1.76-2.21-.85-4.4-1.75-6.57-2.68-1.59-.69-2.25-2.5-1.58-4.12.66-1.59,2.32-2.38,3.93-1.81,1.15.41,2.26.91,3.38,1.37Z"/>
      </g>
      <g>
        <path class="cls-1" d="M869.95,533.46c-4.84-7.78-12.12-12.28-21.15-13.88-.29-.05-.56-.16-.93-.26.48-.72.91-1.3,1.27-1.93,2.48-4.36,3.09-8.91,1.55-13.75-.97-3.05-2.56-3.9-5.48-2.67-4.75,1.99-9.5,3.97-14.24,5.99-.64.27-1.05.25-1.52-.32-1.59-1.94-3.66-3.18-6-3.99-2.56-.89-5.14-1.75-7.71-2.62-2.13-.72-3.59-.15-4.58,1.85-1.25,2.52-2.48,5.06-3.67,7.62-1.02,2.18-1.54,4.47-1.27,6.89.08.71-.19,1.05-.84,1.32-4.92,2.03-9.83,4.1-14.73,6.17-2.1.89-2.86,2.69-1.88,4.76,2.49,5.25,6.57,8.51,12.34,9.54.4.07.79.14,1.31.23-.24.39-.38.66-.55.91-4.43,6.41-6.3,13.5-5.52,21.24.64,6.36,3.12,12.09,6.55,17.39,4.4,6.79,10.46,11.61,18.2,14.07,6.56,2.09,13.21,3.88,19.83,5.79,3.76,1.08,7.48,2.52,11.53,1.61l3.85-1.61c2.21-1.6,3.85-3.65,5.12-6.07,2.17-4.12,4.46-8.18,6.67-12.29,1.89-3.52,4-6.96,5.54-10.64,5.21-12.4,3.2-24.23-3.7-35.32ZM829.47,515.73c.96-1,2.17-1.88,3.43-2.45,3.7-1.69,7.47-3.19,11.22-4.77.22-.09.46-.13.83-.24.02.47.1.87.06,1.26-.44,3.93-2.35,6.87-6,8.49-3.71,1.65-7.49,3.17-11.24,4.74-.24.1-.51.16-.88.27-.15-2.88.68-5.33,2.58-7.31ZM812.64,515.21c.07-.55.05-1.14.25-1.64.93-2.2,1.93-4.37,2.97-6.69,2.3.82,4.39,1.56,6.48,2.32.38.14.74.39,1.08.63,1.45,1.04,1.34,1.08.37,2.58-1.03,1.59-1.79,3.35-2.66,5.04-.15.3-.22.63-.27.76-1.24-.42-2.4-.88-3.6-1.2-1.2-.32-2.44-.57-3.67-.7-.78-.08-1.05-.38-.95-1.1ZM797.21,529.35c-.23-.19-.43-.43-.81-.83.72-.3,1.25-.53,1.79-.75,3.69-1.53,7.36-3.11,11.07-4.58,3.17-1.26,7.81-.08,10.09,2.44.11.12.18.28.3.46-.26.14-.46.27-.68.36-3.78,1.59-7.53,3.25-11.35,4.73-3.78,1.46-7.3.77-10.42-1.83ZM868.7,546.4c1.51,4.81,1.69,9.69.67,14.62-.82,3.97-2.7,7.5-4.63,11.02-3.13,5.7-6.24,11.41-9.34,17.13-1.94,3.57-4.53,4.68-8.42,3.58-7.36-2.09-14.72-4.18-22.07-6.29-7.98-2.3-14-7.11-17.98-14.38-2.07-3.79-3.69-7.79-4.07-12.17-.83-9.43,2.72-16.96,10.02-22.82,2.1-1.69,4.49-2.88,6.99-3.87,2.04-.81,4.04-1.69,6.07-2.54h0c2.57-1.07,5.12-2.16,7.7-3.22,10.53-4.32,23-.97,29.89,8.09,2.47,3.25,3.96,7,5.17,10.86Z"/>
        <path class="cls-1" d="M835.2,570.5c.42.99.85,1.98,1.25,2.98.67,1.71.04,3.47-1.5,4.29-1.42.76-3.4.27-4.21-1.35-1.13-2.26-2.1-4.61-2.91-7-.56-1.66.46-3.3,2.02-3.83,1.59-.54,3.33.23,4.06,1.84.46,1.01.87,2.05,1.3,3.07Z"/>
        <path class="cls-1" d="M814.7,564.52c-.4-.96-.83-1.91-1.2-2.88-.73-1.9-.01-3.71,1.72-4.42,1.69-.7,3.49.04,4.29,1.85.88,1.97,1.71,3.95,2.5,5.95.72,1.83-.05,3.61-1.76,4.31-1.71.71-3.47-.03-4.29-1.84-.45-.98-.84-1.98-1.25-2.97Z"/>
        <path class="cls-1" d="M849.65,579.03c.43,1.02.88,2.04,1.29,3.08.65,1.66-.02,3.4-1.56,4.15-1.55.75-3.42.22-4.18-1.38-1.07-2.25-2.03-4.56-2.89-6.9-.58-1.56.42-3.36,1.94-3.89,1.58-.54,3.34.17,4.03,1.69.49,1.07.92,2.17,1.38,3.26Z"/>
        <path class="cls-1" d="M822.54,547.68c-.39,1-.76,2.01-1.18,3-.69,1.63-2.32,2.45-3.88,1.99-1.73-.51-2.81-2.09-2.25-3.86.77-2.44,1.72-4.83,2.83-7.14.77-1.61,2.51-1.98,4.11-1.23,1.48.7,2.16,2.31,1.66,3.94-.02.07-.04.13-.07.2-.4,1.03-.81,2.07-1.21,3.1Z"/>
        <path class="cls-1" d="M839.27,554.29c.44,1.06.91,2.1,1.32,3.17.61,1.6-.09,3.29-1.62,4.01-1.62.76-3.41.26-4.16-1.35-1.04-2.22-2.01-4.5-2.85-6.8-.63-1.71.31-3.36,2.03-3.97,1.56-.56,3.25.19,3.95,1.78.47,1.05.89,2.11,1.33,3.17Z"/>
        <path class="cls-1" d="M857.96,546.44c.44,1.24.97,2.45,1.3,3.72.42,1.64-.49,3.11-2.1,3.68-1.51.53-3.19-.06-3.88-1.55-1.02-2.2-1.96-4.45-2.81-6.72-.57-1.52.24-3.16,1.67-3.84,1.52-.72,3.15-.26,4.1,1.14.14.2.29.39.39.61.43.99.84,1.98,1.25,2.97.03,0,.05-.02.08-.03Z"/>
        <path class="cls-1" d="M853.71,562.8c.46,1.09.95,2.16,1.36,3.27.58,1.57-.2,3.32-1.72,4-1.5.67-3.48-.02-4.16-1.55-.97-2.19-1.9-4.4-2.78-6.63-.61-1.55.22-3.32,1.74-3.99,1.58-.69,3.4-.04,4.14,1.54.52,1.1.95,2.24,1.42,3.36Z"/>
        <path class="cls-1" d="M842.12,535.06c1.09.45,2.21.86,3.28,1.35,1.59.74,2.22,2.49,1.52,4.13-.66,1.56-2.38,2.37-3.96,1.76-2.21-.85-4.4-1.75-6.57-2.68-1.59-.69-2.25-2.5-1.58-4.12.66-1.59,2.32-2.38,3.93-1.81,1.15.41,2.26.91,3.38,1.37Z"/>
      </g>
    </g>
  </g>
</svg>